<svg xmlns="http://www.w3.org/2000/svg" xmlns:xlink="http://www.w3.org/1999/xlink" xmlns:lucid="lucid" width="1362.5" height="1220"><g transform="translate(-137.5 -20)" lucid:page-tab-id="0_0"><path d="M0 0h1870.87v1322.84H0z" fill="#fff"/><path d="M157.5 81.67V46a6 6 0 0 1 6-6H514a6 6 0 0 1 6 6v35.67z" stroke="#3a414a" fill="#fff"/><path d="M520 81.67V1214a6 6 0 0 1-6 6H163.5a6 6 0 0 1-6-6V81.67z" stroke="#3a414a" fill="none"/><use xlink:href="#a" transform="matrix(1,0,0,1,157.5,40) translate(104.49382716049382 25.444444444444443)"/><path d="M600 81.67V46a6 6 0 0 1 6-6h868a6 6 0 0 1 6 6v35.67z" stroke="#3a414a" fill="#fff"/><path d="M1480 81.67V1214a6 6 0 0 1-6 6H606a6 6 0 0 1-6-6V81.67z" stroke="#3a414a" fill="none"/><use xlink:href="#b" transform="matrix(1,0,0,1,600,40) translate(379.5987654320988 25.444444444444443)"/><use xlink:href="#c" transform="matrix(1,0,0,1,600,40) translate(426.3888888888889 25.444444444444443)"/><path d="M260 180c0 16.57-13.43 30-30 30s-30-13.43-30-30 13.43-30 30-30 30 13.43 30 30z" stroke="#3a414a" fill="#fff"/><use xlink:href="#d" transform="matrix(1,0,0,1,200,212) translate(0.8888888888888999 14.222222222222221)"/><use xlink:href="#e" transform="matrix(1,0,0,1,200,212) translate(-31.60493827160493 35.55555555555556)"/><use xlink:href="#f" transform="matrix(1,0,0,1,200,212) translate(-8.962962962962955 56.888888888888886)"/><path d="M300 126a6 6 0 0 1 6-6h148a6 6 0 0 1 6 6v108a6 6 0 0 1-6 6H306a6 6 0 0 1-6-6z" stroke="#3a414a" fill="#fff"/><path d="M308.6 135.7h35v20h-35z" stroke="#3a414a"/><path d="M308.6 135.7l17.5 10 17.5-10" stroke="#fff" fill="none"/><use xlink:href="#g" transform="matrix(1,0,0,1,300,120) translate(14.104999999999999 63.15)"/><use xlink:href="#h" transform="matrix(1,0,0,1,300,120) translate(48.005 63.15)"/><path d="M261 180h22.12" stroke="#3a414a" fill="none"/><path d="M261 180.5h-.54l.04-.5-.02-.5h.53z" stroke="#3a414a" stroke-width=".05" fill="#3a414a"/><path d="M297.88 180l-14.26 4.63v-9.26z" stroke="#3a414a" fill="#3a414a"/><path d="M490.83 180h10.82m10.8 0h21.64m10.8 0h21.63m10.82 0h21.63m10.8 0h10.83" stroke="#3a414a" fill="none"/><path d="M491 180c0 8.28-6.72 15-15 15-8.28 0-15-6.72-15-15 0-8.28 6.72-15 15-15 8.28 0 15 6.72 15 15zM635.37 180l-14.26 4.63v-9.26zM697.5 180c0 16.57-13.44 30-30 30-16.58 0-30-13.43-30-30s13.42-30 30-30c16.56 0 30 13.43 30 30z" stroke="#3a414a" fill="#fff"/><path d="M647.5 168.75h40v22.5h-40z" stroke="#3a414a" fill="#fff"/><path d="M647.5 168.75l20 11.25 20-11.25" stroke="#3a414a" fill="none"/><use xlink:href="#i" transform="matrix(1,0,0,1,637.4898652527919,212) translate(6.83950617283951 14.222222222222221)"/><use xlink:href="#j" transform="matrix(1,0,0,1,637.4898652527919,212) translate(6.666666666666668 35.55555555555556)"/><path d="M698.5 180h72.68a6 6 0 0 1 6 6v57.12" stroke="#3a414a" fill="none"/><path d="M698.5 180.5h-.55l.04-.5-.03-.5h.53z" stroke="#3a414a" stroke-width=".05" fill="#3a414a"/><path d="M777.18 257.88l-4.63-14.26h9.27z" stroke="#3a414a" fill="#3a414a"/><path d="M697.5 266a6 6 0 0 1 6-6h157.37a6 6 0 0 1 6 6v68a6 6 0 0 1-6 6H703.5a6 6 0 0 1-6-6z" stroke="#3a414a" fill="#fff"/><use xlink:href="#k" transform="matrix(1,0,0,1,697.489865252792,260) translate(34.28277777777779 44.22222222222222)"/><use xlink:href="#l" transform="matrix(1,0,0,1,697.489865252792,260) translate(98.33216049382716 44.22222222222222)"/><path d="M655 445l24 22.5V520h-60v-75z" stroke="#3a414a" fill="#fff"/><path d="M655 445v22.5h24" stroke="#3a414a" fill="none"/><path d="M623.24 454.75h19.26v-5.25l8.26 10.5-8.26 10.5v-5.25h-19.26z" stroke="#3a414a"/><use xlink:href="#m" transform="matrix(1,0,0,1,619.0000999999995,520) translate(7.253086419753089 17.77777777777778)"/><path d="M649 444v-1m0-4v-2m0-4v-2m0-4v-2m0-4v-2m0-4v-2m0-4v-2m0-4v-2m0-4v-2m0-4v-2m0-4v-2m0-4v-2m0-4v-2m0-4v-2m0-4v-2m0-4v-2m0-4v-2m0-4v-2m0-4v-2m0-4v-2m0-4v-2m0-4v-2m0-4v-2m0-4v-1l.06-.78m1.2-2.87l.5-.6.6-.5m2.86-1.2l.78-.05h1m3.94 0h1.97m3.97 0h1.97m3.95 0h1.97m3.95 0h1.98m3.95 0h1.97m3.96 0h1.97m3.95 0h1" stroke="#3a414a" fill="none"/><path d="M649.5 444.5h-1v-.5h1zM697 300.5h-.52v-1h.5z" stroke="#3a414a" stroke-width=".05" fill="#3a414a"/><path d="M717.87 866a6 6 0 0 1 6-6H875.6a6 6 0 0 1 6 6v88a6 6 0 0 1-6 6H723.87a6 6 0 0 1-6-6z" stroke="#3a414a" fill="#fff"/><path d="M726.5 875.5h35v20h-35z" stroke="#3a414a"/><path d="M726.5 875.5l17.5 10 17.5-10" stroke="#fff" fill="none"/><use xlink:href="#n" transform="matrix(1,0,0,1,717.8647652527926,860) translate(73.95561728395062 32.97222222222222)"/><use xlink:href="#o" transform="matrix(1,0,0,1,717.8647652527926,860) translate(115.28895061728394 32.97222222222222)"/><use xlink:href="#p" transform="matrix(1,0,0,1,717.8647652527926,860) translate(60.32598765432099 54.30555555555555)"/><use xlink:href="#q" transform="matrix(1,0,0,1,717.8647652527926,860) translate(20.96796296296298 75.63888888888889)"/><use xlink:href="#r" transform="matrix(1,0,0,1,717.8647652527926,860) translate(45.65932098765433 75.63888888888889)"/><use xlink:href="#s" transform="matrix(1,0,0,1,717.8647652527926,860) translate(73.95561728395063 75.63888888888889)"/><path d="M687.03 910h-10.5m-10.5 0H645m-10.5 0h-21.03m-10.5 0h-21.02m-10.5 0H550.4m-10.5 0H518.9m-10.5 0h-10.52" stroke="#3a414a" fill="none"/><path d="M716.87 910c0 8.28-6.72 15-15 15-8.3 0-15-6.72-15-15 0-8.28 6.7-15 15-15 8.28 0 15 6.72 15 15zM483.12 910l14.26-4.63v9.26zM321 856a6 6 0 0 1 6-6h148a6 6 0 0 1 6 6v108a6 6 0 0 1-6 6H327a6 6 0 0 1-6-6z" stroke="#3a414a" fill="#fff"/><path d="M329.6 865.7h35v20h-35z" stroke="#3a414a" fill="#fff"/><path d="M329.6 865.7l17.5 10 17.5-10" stroke="#3a414a" fill="none"/><use xlink:href="#n" transform="matrix(1,0,0,1,320.9999000000005,850) translate(21.412407407407407 62.97222222222222)"/><use xlink:href="#t" transform="matrix(1,0,0,1,320.9999000000005,850) translate(62.745740740740736 62.97222222222222)"/><path d="M985 757.5l37.5-37.5 37.5 37.5-37.5 37.5z" stroke="#3a414a" fill="#fff"/><path d="M1007.5 742.5l30 30m-30 0l30-30M983.8 757.5h-89.05" stroke="#3a414a" fill="none"/><path d="M984.3 757.5l.5.5h-1.02v-1h1z" stroke="#3a414a" stroke-width=".05" fill="#3a414a"/><path d="M879.98 757.5l14.27-4.63v9.26z" stroke="#3a414a" fill="#3a414a"/><use xlink:href="#u" transform="matrix(1,0,0,1,881.6895256022964,766.1352549156242) translate(0 14.222222222222223)"/><use xlink:href="#v" transform="matrix(1,0,0,1,881.6895256022964,766.1352549156242) translate(0 35.55555555555556)"/><path d="M321 706a6 6 0 0 1 6-6h148a6 6 0 0 1 6 6v108a6 6 0 0 1-6 6H327a6 6 0 0 1-6-6z" stroke="#3a414a" fill="#fff"/><path d="M329.6 715.7h35v20h-35z" stroke="#3a414a" fill="#fff"/><path d="M329.6 715.7l17.5 10 17.5-10" stroke="#3a414a" fill="none"/><use xlink:href="#w" transform="matrix(1,0,0,1,320.9999000000005,700) translate(56.62228395061728 32.97222222222222)"/><use xlink:href="#x" transform="matrix(1,0,0,1,320.9999000000005,700) translate(60.5729012345679 54.30555555555555)"/><use xlink:href="#y" transform="matrix(1,0,0,1,320.9999000000005,700) translate(113.80746913580246 54.30555555555555)"/><use xlink:href="#z" transform="matrix(1,0,0,1,320.9999000000005,700) translate(25.75808641975309 75.63888888888889)"/><use xlink:href="#A" transform="matrix(1,0,0,1,320.9999000000005,700) translate(14.918580246913601 96.9722222222222)"/><path d="M1022.5 796.2V904a6 6 0 0 1-6 6h-118" stroke="#3a414a" fill="none"/><path d="M1023 796.22h-1v-1l.5.5.5-.5z" stroke="#3a414a" stroke-width=".05" fill="#3a414a"/><path d="M883.73 910l14.27-4.63v9.26z" stroke="#3a414a" fill="#3a414a"/><use xlink:href="#B" transform="matrix(1,0,0,1,907.986609315325,884.6666666666667) translate(0 14.222222222222223)"/><path d="M717.87 706a6 6 0 0 1 6-6h148a6 6 0 0 1 6 6v108a6 6 0 0 1-6 6h-148a6 6 0 0 1-6-6z" stroke="#3a414a" fill="#fff"/><path d="M726.47 715.7h35v20h-35z" stroke="#3a414a"/><path d="M726.47 715.7l17.5 10 17.5-10" stroke="#fff" fill="none"/><use xlink:href="#C" transform="matrix(1,0,0,1,717.8647652527926,700) translate(53.529999999999994 40.65)"/><use xlink:href="#D" transform="matrix(1,0,0,1,717.8647652527926,700) translate(25.07999999999999 62.25)"/><use xlink:href="#E" transform="matrix(1,0,0,1,717.8647652527926,700) translate(41.55499999999999 83.85000000000001)"/><path d="M687.03 760h-10.5m-10.5 0H645m-10.5 0h-21.03m-10.5 0h-21.02m-10.5 0H550.4m-10.5 0H518.9m-10.5 0h-10.52" stroke="#3a414a" fill="none"/><path d="M716.87 760c0 8.28-6.72 15-15 15-8.3 0-15-6.72-15-15 0-8.28 6.7-15 15-15 8.28 0 15 6.72 15 15zM483.12 760l14.26-4.63v9.26z" stroke="#3a414a" fill="#fff"/><path d="M511.83 610h10.5m10.52 0h21.02m10.5 0h21.02m10.5 0h21m10.52 0h21.02m10.5 0h21.02m10.5 0H701" stroke="#3a414a" fill="none"/><path d="M512 610c0 8.28-6.72 15-15 15-8.28 0-15-6.72-15-15 0-8.28 6.72-15 15-15 8.28 0 15 6.72 15 15zM715.75 610l-14.27 4.63v-9.26z" stroke="#3a414a" fill="#fff"/><path d="M867.87 300h15.25" stroke="#3a414a" fill="none"/><path d="M867.88 300.5h-.5v-1h.5z" stroke="#3a414a" stroke-width=".05" fill="#3a414a"/><path d="M897.88 300l-14.26 4.63v-9.26z" stroke="#3a414a" fill="#3a414a"/><path d="M900 246a6 6 0 0 1 6-6h148a6 6 0 0 1 6 6v108a6 6 0 0 1-6 6H906a6 6 0 0 1-6-6z" stroke="#3a414a" fill="#fff"/><path d="M908.6 274.1v-14.7l7-4.2h12.95c1.05 0 .35 2.1-.7 4h-8.75l-.35.4h23.8c.35 0 1.05 1.9-.7 3.8h-14l-.35.4h14s1.05 1.9-1.05 3.8H928.9l-.35.4h11.2s1.05 1.9-1.05 3.8h-10.5l-.35.4h9.8s1.05 1.9-.7 4H912.1z" stroke="#3a414a" fill="#fff"/><use xlink:href="#F" transform="matrix(1,0,0,1,900,240) translate(76.3691975308642 40.47222222222222)"/><use xlink:href="#G" transform="matrix(1,0,0,1,900,240) translate(30.671666666666674 61.80555555555555)"/><use xlink:href="#H" transform="matrix(1,0,0,1,900,240) translate(95.80746913580246 61.80555555555555)"/><use xlink:href="#I" transform="matrix(1,0,0,1,900,240) translate(21.313641975308656 83.13888888888889)"/><use xlink:href="#J" transform="matrix(1,0,0,1,900,240) translate(115.04203703703703 83.13888888888889)"/><path d="M973.16 361v13a6 6 0 0 1-6 6h-170.9a3.12 3.12 0 0 0-3.1 3.12" stroke="#3a414a" fill="none"/><path d="M973.66 361h-1v-.5h1z" stroke="#3a414a" stroke-width=".05" fill="#3a414a"/><path d="M793.16 397.88l-4.64-14.26h9.27z" stroke="#3a414a" fill="#3a414a"/><path d="M713.16 406a6 6 0 0 1 6-6h148a6 6 0 0 1 6 6v108a6 6 0 0 1-6 6h-148a6 6 0 0 1-6-6z" stroke="#3a414a" fill="#fff"/><use xlink:href="#K" transform="matrix(1,0,0,1,713.1578974622632,400) translate(58.795123456790115 40.47222222222222)"/><use xlink:href="#L" transform="matrix(1,0,0,1,713.1578974622632,400) translate(8.029691358024673 61.80555555555556)"/><use xlink:href="#M" transform="matrix(1,0,0,1,713.1578974622632,400) translate(126.3506790123457 61.80555555555556)"/><use xlink:href="#N" transform="matrix(1,0,0,1,713.1578974622632,400) translate(25.75808641975307 83.1388888888889)"/><path d="M874.16 460h142.34a6 6 0 0 1 6 6v236.9" stroke="#3a414a" fill="none"/><path d="M874.17 460.5h-.5v-1h.5z" stroke="#3a414a" stroke-width=".05" fill="#3a414a"/><path d="M1022.5 717.67l-4.63-14.26h9.26z" stroke="#3a414a" fill="#3a414a"/><path d="M717.87 576a6 6 0 0 1 6-6h148a6 6 0 0 1 6 6v68a6 6 0 0 1-6 6h-148a6 6 0 0 1-6-6z" stroke="#3a414a" fill="#fff"/><path d="M726.47 585.3h35v20h-35z" stroke="#3a414a" fill="#fff"/><path d="M726.47 585.3l17.5 10 17.5-10" stroke="#3a414a" fill="none"/><use xlink:href="#O" transform="matrix(1,0,0,1,717.8647652527926,570.0000000000001) translate(56.080000000000005 31.9)"/><use xlink:href="#P" transform="matrix(1,0,0,1,717.8647652527926,570.0000000000001) translate(111.08 31.9)"/><use xlink:href="#Q" transform="matrix(1,0,0,1,717.8647652527926,570.0000000000001) translate(92.005 53.5)"/><path d="M793.16 569v-32.12" stroke="#3a414a" fill="none"/><path d="M793.66 569.5h-1v-.5h1z" stroke="#3a414a" stroke-width=".05" fill="#3a414a"/><path d="M793.16 522.12l4.63 14.26h-9.28z" stroke="#3a414a" fill="#3a414a"/><path d="M716.87 587.78h-1.05m-4.18 0h-2.1m-4.18 0h-2.1m-4.17 0H697m-4.2 0h-2.08m-4.2 0h-2.08m-4.18 0h-2.1m-4.17 0h-2.1m-4.2 0h-2.08m-4.2 0h-1.03l-.8-.06m-2.86-1.2l-.6-.5-.5-.6m-1.2-2.86l-.05-.78v-1m0-4.07v-2m0-4.07v-2.02m0-4.04v-2.03m0-4.05v-2.03m0-4.05v-2.02m0-4.06v-2.02m0-4.05v-2.03m0-4.05v-2.03m0-4.05v-2.03m0-4.06v-1" stroke="#3a414a" fill="none"/><path d="M717.37 588.28h-.52v-1h.5zM654.9 521h-1v-.5h1z" stroke="#3a414a" stroke-width=".05" fill="#3a414a"/><path d="M321 536a6 6 0 0 1 6-6h148a6 6 0 0 1 6 6v108a6 6 0 0 1-6 6H327a6 6 0 0 1-6-6z" stroke="#3a414a" fill="#fff"/><path d="M329.6 545.7h35v20h-35z" stroke="#3a414a"/><path d="M329.6 545.7l17.5 10 17.5-10" stroke="#fff" fill="none"/><use xlink:href="#R" transform="matrix(1,0,0,1,320.9999000000005,530) translate(16.604999999999997 55.41)"/><use xlink:href="#S" transform="matrix(1,0,0,1,320.9999000000005,530) translate(25.07999999999999 77.01)"/><use xlink:href="#T" transform="matrix(1,0,0,1,320.9999000000005,530) translate(32.55499999999999 98.61000000000001)"/><path d="M401 699v-32.12" stroke="#3a414a" fill="none"/><path d="M401.5 699.5h-1v-.5h1z" stroke="#3a414a" stroke-width=".05" fill="#3a414a"/><path d="M401 652.12l4.63 14.26h-9.26z" stroke="#3a414a" fill="#3a414a"/><path d="M320 912h-58.9" stroke="#3a414a" fill="none"/><path d="M320.5 912.5h-.5v-1h.5z" stroke="#3a414a" stroke-width=".05" fill="#3a414a"/><path d="M246.32 912l14.27-4.63v9.26z" stroke="#3a414a" fill="#3a414a"/><path d="M171 910l37.5-37.5L246 910l-37.5 37.5z" stroke="#3a414a" fill="#fff"/><path d="M193.5 895l30 30m-30 0l30-30M208.5 871.3V765.8a6 6 0 0 1 6-6h89.62" stroke="#3a414a" fill="none"/><path d="M209 872.3l-.5-.5-.5.5v-1.02h1z" stroke="#3a414a" stroke-width=".05" fill="#3a414a"/><path d="M318.88 759.8l-14.26 4.63v-9.27z" stroke="#3a414a" fill="#3a414a"/><use xlink:href="#U" transform="matrix(1,0,0,1,216.4999000000006,837.4517312435288) translate(0 14.222222222222223)"/><use xlink:href="#V" transform="matrix(1,0,0,1,216.4999000000006,837.4517312435288) translate(0 35.55555555555556)"/><path d="M208.5 948.7v95.3a6 6 0 0 0 6 6h89.62" stroke="#3a414a" fill="none"/><path d="M209 948.72h-1v-1l.5.5.5-.5z" stroke="#3a414a" stroke-width=".05" fill="#3a414a"/><path d="M318.88 1050l-14.26 4.63v-9.27z" stroke="#3a414a" fill="#3a414a"/><use xlink:href="#W" transform="matrix(1,0,0,1,216.49990000000062,962.798604099217) translate(0 14.222222222222223)"/><use xlink:href="#X" transform="matrix(1,0,0,1,216.49990000000062,962.798604099217) translate(41.333333333333336 14.222222222222223)"/><path d="M321 996a6 6 0 0 1 6-6h148a6 6 0 0 1 6 6v108a6 6 0 0 1-6 6H327a6 6 0 0 1-6-6z" stroke="#3a414a" fill="#fff"/><path d="M329.6 1005.7h35v20h-35z" stroke="#3a414a"/><path d="M329.6 1005.7l17.5 10 17.5-10" stroke="#fff" fill="none"/><use xlink:href="#Y" transform="matrix(1,0,0,1,320.9999000000005,990) translate(37.529999999999994 63.15)"/><path d="M511.83 1050h9.67m9.66 0h19.33m9.65 0h19.33m9.66 0h9.77l.1-.03.1-.04.07-.05.08-.06.06-.08.06-.08.04-.1.02-.1v-.1l.02-.08.02-.1.04-.1.05-.07.07-.07.07-.06.07-.05.1-.04.1-.02h10.57m10.47 0h20.97m10.48 0h20.96m10.5 0h10.46" stroke="#3a414a" fill="none"/><path d="M512 1050c0 8.28-6.72 15-15 15-8.28 0-15-6.72-15-15 0-8.28 6.72-15 15-15 8.28 0 15 6.72 15 15zM716.38 1048.75l-21.52 12.73v-25.46zM717.87 1024.75a6 6 0 0 1 6-6h148a6 6 0 0 1 6 6v48a6 6 0 0 1-6 6h-148a6 6 0 0 1-6-6z" stroke="#3a414a" fill="#fff"/><use xlink:href="#n" transform="matrix(1,0,0,1,717.8647652527926,1018.75) translate(20.375370370370376 21.72222222222222)"/><use xlink:href="#Z" transform="matrix(1,0,0,1,717.8647652527926,1018.75) translate(61.708703703703705 21.72222222222222)"/><use xlink:href="#aa" transform="matrix(1,0,0,1,717.8647652527926,1018.75) translate(80.42475308641974 21.72222222222222)"/><use xlink:href="#ab" transform="matrix(1,0,0,1,717.8647652527926,1018.75) translate(48.42475308641975 43.05555555555556)"/><path d="M990 1022.25a6 6 0 0 1 6-6h148a6 6 0 0 1 6 6v50.5a6 6 0 0 1-6 6H996a6 6 0 0 1-6-6z" stroke="#3a414a" fill="#fff"/><use xlink:href="#ac" transform="matrix(1,0,0,1,990.0000000000001,1016.25) translate(30.251913580246928 26.03472222222222)"/><use xlink:href="#ad" transform="matrix(1,0,0,1,990.0000000000001,1016.25) translate(46.498827160493825 47.36805555555555)"/><path d="M1136 880l24 22.5V955h-60v-75z" stroke="#3a414a" fill="#fff"/><path d="M1136 880v22.5h24" stroke="#3a414a" fill="none"/><path d="M1104.24 889.75h19.26v-5.25l8.26 10.5-8.26 10.5v-5.25h-19.26z" stroke="#3a414a"/><use xlink:href="#ae" transform="matrix(1,0,0,1,1100,955) translate(-3.037037037037038 14.222222222222223)"/><use xlink:href="#af" transform="matrix(1,0,0,1,1100,955) translate(10.345679012345677 35.55555555555556)"/><path d="M1220 1022.25a6 6 0 0 1 6-6h148a6 6 0 0 1 6 6v50.5a6 6 0 0 1-6 6h-148a6 6 0 0 1-6-6z" stroke="#3a414a" fill="#fff"/><use xlink:href="#ag" transform="matrix(1,0,0,1,1220,1016.25) translate(17.659320987654333 26.03472222222222)"/><use xlink:href="#ah" transform="matrix(1,0,0,1,1220,1016.25) translate(106.49882716049383 26.03472222222222)"/><use xlink:href="#ai" transform="matrix(1,0,0,1,1220,1016.25) translate(49.90623456790124 47.36805555555555)"/><path d="M1216 1100l24 22.5v52.5h-60v-75z" stroke="#3a414a" fill="#fff"/><path d="M1216 1100v22.5h24" stroke="#3a414a" fill="none"/><path d="M1184.24 1109.75h19.26v-5.25l8.26 10.5-8.26 10.5v-5.25h-19.26z" stroke="#3a414a" fill="#fff"/><use xlink:href="#aj" transform="matrix(1,0,0,1,1180,1175) translate(11.802469135802468 14.222222222222223)"/><path d="M1241 1143.75h1m4.06 0h2.02m4.04 0h2.02m4.05 0h2m4.06 0h2.02m4.04 0h2.02m4.05 0h2m4.06 0h2.02m4.04 0h2.02m4.05 0h2m4.06 0h2.02m4.04 0h2.02m4.05 0h2m4.06 0h2.02m4.04 0h2.02m4.05 0h1l.78-.06m2.87-1.2l.6-.5.5-.6m1.2-2.87l.05-.78v-.97m0-3.86v-1.94m0-3.86v-1.94m0-3.86v-1.94m0-3.86v-1.94m0-3.86v-1.94m0-3.86v-1.94m0-3.86v-1.94m0-3.86v-1.94m0-3.86v-1.94m0-3.86v-.97" stroke="#3a414a" fill="none"/><path d="M1241 1144.25h-.5v-1h.5zM1338.5 1079.76h-1v-.5h1z" stroke="#3a414a" stroke-width=".05" fill="#3a414a"/><path d="M1179 1137.5h-1m-4.05 0h-2.02m-4.04 0h-2.03m-4.04 0h-2.02m-4.02 0h-2.02m-4.04 0h-2.02m-4.04 0h-2.02m-4.04 0h-2.02m-4.04 0h-2.02m-4.04 0h-2.02m-4.04 0h-2.02m-4.04 0h-2.02m-4.04 0h-2.02m-4.04 0h-2.02m-4.03 0h-2.03m-4.04 0h-2.02m-4.03 0h-2.02m-4.04 0h-1l-.78-.06m-2.87-1.2l-.6-.5-.5-.6m-1.2-2.86l-.05-.78v-.96m0-3.83v-1.9m0-3.84v-1.92m0-3.83v-1.9m0-3.84v-1.92m0-3.83v-1.9m0-3.84v-1.92m0-3.83v-1.9m0-3.84v-1.92m0-3.83v-.95" stroke="#3a414a" fill="none"/><path d="M1179.5 1138h-.5v-1h.5zM1070.5 1079.76h-1v-.5h1z" stroke="#3a414a" stroke-width=".05" fill="#3a414a"/><path d="M1070 1015.25v-1.03m0-4.13v-2.07m0-4.13v-2.07m0-4.13v-2.06m0-4.13v-2.05m0-4.13v-2.06m0-4.13v-2.07m0-4.12v-2.07m0-4.13v-2.06m0-4.13v-2.06m0-4.14v-2.07m0-4.13v-2.07m0-4.13v-2.06m0-4.12v-1.03l.06-.78m1.2-2.87l.5-.6.6-.5m2.86-1.2l.78-.05h.96m3.83 0h1.9m3.84 0h1.92m3.83 0h1.9m3.84 0h.96" stroke="#3a414a" fill="none"/><path d="M1070.5 1015.75h-1v-.5h1zM1099.5 929.25h-.5v-1h.5z" stroke="#3a414a" stroke-width=".05" fill="#3a414a"/><path d="M1337 1015.25v-1m0-3.95v-1.98m0-3.96v-1.98m0-3.95v-1.98m0-3.96v-2m0-3.95v-1.98m0-3.96v-1.97m0-3.95v-1.98m0-3.96v-1.98m0-3.96v-1.98m0-3.96v-1.98m0-3.95v-1.98m0-3.96v-1l.06-.78m1.2-2.87l.5-.6.6-.5m2.86-1.2l.78-.05h.95m3.83 0h1.9m3.83 0h1.92m3.82 0h1.9m3.83 0h1.9m3.83 0h1.9m3.83 0h.95" stroke="#3a414a" fill="none"/><path d="M1337.5 1015.75h-1v-.5h1zM1377.88 938.5h-.5v-1h.5z" stroke="#3a414a" stroke-width=".05" fill="#3a414a"/><path d="M1414.38 885l24 22.5V960h-60v-75z" stroke="#3a414a" fill="#fff"/><path d="M1414.38 885v22.5h24" stroke="#3a414a" fill="none"/><path d="M1382.63 894.75h19.26v-5.25l8.24 10.5-8.25 10.5v-5.25h-19.28z" stroke="#3a414a"/><g><use xlink:href="#ak" transform="matrix(1,0,0,1,1378.3852347472075,960) translate(15.382716049382715 14.222222222222223)"/><use xlink:href="#al" transform="matrix(1,0,0,1,1378.3852347472075,960) translate(4.370370370370367 35.55555555555556)"/></g><path d="M1280 1015.25V856.88" stroke="#3a414a" fill="none"/><path d="M1280.5 1015.75h-1v-.5h1z" stroke="#3a414a" stroke-width=".05" fill="#3a414a"/><path d="M1280 842.12l4.63 14.26h-9.27z" stroke="#3a414a" fill="#3a414a"/><path d="M1200 726a6 6 0 0 1 6-6h148a6 6 0 0 1 6 6v108a6 6 0 0 1-6 6h-148a6 6 0 0 1-6-6z" stroke="#3a414a" fill="#fff"/><g><use xlink:href="#am" transform="matrix(1,0,0,1,1200,720) translate(43.06672839506174 21.72222222222222)"/><use xlink:href="#y" transform="matrix(1,0,0,1,1200,720) translate(87.31364197530864 21.72222222222222)"/><use xlink:href="#an" transform="matrix(1,0,0,1,1200,720) translate(28.696358024691364 43.05555555555556)"/><use xlink:href="#ao" transform="matrix(1,0,0,1,1200,720) translate(117.53586419753086 43.05555555555556)"/><use xlink:href="#ap" transform="matrix(1,0,0,1,1200,720) translate(17.363024691358028 64.38888888888889)"/><use xlink:href="#aq" transform="matrix(1,0,0,1,1200,720) translate(119.9803086419753 64.38888888888889)"/><use xlink:href="#ar" transform="matrix(1,0,0,1,1200,720) translate(30.721049382716053 85.72222222222223)"/><use xlink:href="#as" transform="matrix(1,0,0,1,1200,720) translate(48.42475308641975 107.05555555555554)"/></g><path d="M1180 621.25c0-6.2-26.86-11.25-60-11.25s-60 5.04-60 11.25V691c0 3.96 26.86 9 60 9s60-5.04 60-11.25z" stroke="#3a414a" fill="#fff"/><path d="M1180 621.25c0 6.2-26.86 11.25-60 11.25s-60-5.04-60-11.25m120 8.55c0 3.96-26.86 9-60 9s-60-5.04-60-11.25m120 8.55c0 3.96-26.86 9-60 9s-60-5.04-60-11.25" stroke="#3a414a" fill="#fff"/><g><use xlink:href="#ag" transform="matrix(1,0,0,1,1060,650) translate(4.246913580246925 23.555555555555557)"/><use xlink:href="#at" transform="matrix(1,0,0,1,1060,650) translate(93.08641975308642 23.555555555555557)"/></g><path d="M1440 608.75c0-6.2-26.86-11.25-60-11.25s-60 5.04-60 11.25v69.75c0 3.96 26.86 9 60 9s60-5.04 60-11.25z" stroke="#3a414a" fill="#fff"/><path d="M1440 608.75c0 6.2-26.86 11.25-60 11.25s-60-5.04-60-11.25m120 8.55c0 3.96-26.86 9-60 9s-60-5.04-60-11.25m120 8.55c0 3.96-26.86 9-60 9s-60-5.04-60-11.25" stroke="#3a414a" fill="#fff"/><g><use xlink:href="#ac" transform="matrix(1,0,0,1,1320,637.5) translate(10.246913580246932 14.222222222222221)"/><use xlink:href="#at" transform="matrix(1,0,0,1,1320,637.5) translate(48.66666666666667 35.55555555555556)"/></g><path d="M1361 748.72h.98m3.95 0h1.97m3.94 0h1.97m3.95 0h1.97m3.94 0h1.97m3.94 0h1.98m3.94 0h1.96m3.94 0h.98l.8.06m2.85 1.2l.6.5.5.6m1.2 2.86l.06.78-.02.98m0 3.92v1.96m0 3.92v1.96m0 3.9v1.97m0 3.92v1.96m0 3.92v1.96m0 3.92v1.96m0 3.92v1.96m0 3.9v1.97m0 3.93v1.96m0 3.9v1.97m0 3.9v1.97m0 3.92v1.96m0 3.9v1.97m0 3.9v1.97m0 3.92v1.95m0 3.9v1.97m0 3.92v1.96m0 3.92v1.96m0 3.9v1.97m0 3.92v1.96m0 3.9v1.97m0 3.92v.98" stroke="#3a414a" fill="none"/><path d="M1361 749.22h-.5v-1h.5zM1408.88 884.5h-1v-.5h1z" stroke="#3a414a" stroke-width=".05" fill="#3a414a"/><path d="M1199 816h-.95m-3.8 0h-1.9m-3.8 0h-1.9m-3.8 0h-1.9m-3.8 0h-1.9m-3.8 0h-1.9m-3.8 0h-1.9m-3.8 0h-1.9m-3.8 0h-1.9m-3.8 0h-1.9m-3.8 0h-.95l-.78.06m-2.87 1.2l-.6.5-.5.6m-1.2 2.86l-.05.78v.95m0 3.8v1.9m0 3.8v1.9m0 3.8v1.9m0 3.8v1.9m0 3.8v1.9m0 3.8v1.9m0 3.8v1.9m0 3.8v1.9m0 3.8v1.9m0 3.8v.95" stroke="#3a414a" fill="none"/><path d="M1199.5 816.5h-.5v-1h.5zM1136.5 879.78l-.3-.28h-.7v-.5h1z" stroke="#3a414a" stroke-width=".05" fill="#3a414a"/><path d="M1199 797.5h-1m-4.07 0h-2.03m-4.05 0h-2.03m-4.06 0h-2.02m-4.06 0h-2.03m-4.05 0h-2.03m-4.06 0h-2m-4.07 0h-2.03m-4.05 0h-2.03m-4.06 0h-2.02m-4.06 0h-2.03m-4.05 0h-2.03m-4.06 0h-1l-.78-.06m-2.87-1.2l-.6-.5-.5-.6m-1.2-2.86l-.05-.78v-1m0-4.03v-2m0-4.03v-2m0-4.03v-2m0-4.03v-2m0-4.03v-2m0-4.03v-2m0-4.03v-2m0-4.03v-2m0-4.03v-2m0-4.03v-2m0-4.03v-2m0-4.03v-2m0-4.03v-2m0-4.03v-2m0-4.03v-1" stroke="#3a414a" fill="none"/><path d="M1199.5 798h-.5v-1h.5zM1120.5 701h-1v-.52l.5.02.5-.02z" stroke="#3a414a" stroke-width=".05" fill="#3a414a"/><path d="M1361 727.33h.93m3.74 0h1.87m3.74 0h1.87m3.74 0h1.86m3.74 0h1.87m3.74 0h1.88m3.73 0h.95l.78-.06m2.87-1.2l.6-.5.5-.6m1.2-2.86l.05-.77v-.93m0-3.74v-1.87m0-3.75v-1.87m0-3.74v-1.87m0-3.74v-1.87m0-3.74v-1.87m0-3.74v-.92" stroke="#3a414a" fill="none"/><path d="M1361 727.83h-.5v-1h.5zM1401.15 687.7h-1v-.5l1-.04z" stroke="#3a414a" stroke-width=".05" fill="#3a414a"/><path d="M1259.88 719v-42.62" stroke="#3a414a" fill="none"/><path d="M1260.38 719.5h-1v-.5h1z" stroke="#3a414a" stroke-width=".05" fill="#3a414a"/><path d="M1259.88 661.62l4.63 14.26h-9.26z" stroke="#3a414a" fill="#3a414a"/><path d="M1289.88 630c0 16.57-13.44 30-30 30-16.57 0-30-13.43-30-30s13.43-30 30-30c16.56 0 30 13.43 30 30z" stroke="#3a414a" stroke-width="5" fill="#fff"/><path d="M878.87 1048.75h94.25" stroke="#3a414a" fill="none"/><path d="M878.88 1049.25h-.5v-1h.5z" stroke="#3a414a" stroke-width=".05" fill="#3a414a"/><path d="M987.88 1048.75l-14.26 4.63v-9.27z" stroke="#3a414a" fill="#3a414a"/><path d="M1151 1047.5h52.12" stroke="#3a414a" fill="none"/><path d="M1151 1048h-.5v-1h.5z" stroke="#3a414a" stroke-width=".05" fill="#3a414a"/><path d="M1217.88 1047.5l-14.26 4.63v-9.27z" stroke="#3a414a" fill="#3a414a"/><defs><path fill="#3a414a" d="M185-189c-5-48-123-54-124 2 14 75 158 14 163 119 3 78-121 87-175 55-17-10-28-26-33-46l33-7c5 56 141 63 141-1 0-78-155-14-162-118-5-82 145-84 179-34 5 7 8 16 11 25" id="au"/><path fill="#3a414a" d="M100-194c63 0 86 42 84 106H49c0 40 14 67 53 68 26 1 43-12 49-29l28 8c-11 28-37 45-77 45C44 4 14-33 15-96c1-61 26-98 85-98zm52 81c6-60-76-77-97-28-3 7-6 17-6 28h103" id="av"/><path fill="#3a414a" d="M114-163C36-179 61-72 57 0H25l-1-190h30c1 12-1 29 2 39 6-27 23-49 58-41v29" id="aw"/><path fill="#3a414a" d="M108 0H70L1-190h34L89-25l56-165h34" id="ax"/><path fill="#3a414a" d="M24-231v-30h32v30H24zM24 0v-190h32V0H24" id="ay"/><path fill="#3a414a" d="M96-169c-40 0-48 33-48 73s9 75 48 75c24 0 41-14 43-38l32 2c-6 37-31 61-74 61-59 0-76-41-82-99-10-93 101-131 147-64 4 7 5 14 7 22l-32 3c-4-21-16-35-41-35" id="az"/><path fill="#3a414a" d="M115-194c55 1 70 41 70 98S169 2 115 4C84 4 66-9 55-30l1 105H24l-1-265h31l2 30c10-21 28-34 59-34zm-8 174c40 0 45-34 45-75s-6-73-45-74c-42 0-51 32-51 76 0 43 10 73 51 73" id="aA"/><path fill="#3a414a" d="M100-194c62-1 85 37 85 99 1 63-27 99-86 99S16-35 15-95c0-66 28-99 85-99zM99-20c44 1 53-31 53-75 0-43-8-75-51-75s-53 32-53 75 10 74 51 75" id="aB"/><path fill="#3a414a" d="M85-194c31 0 48 13 60 33l-1-100h32l1 261h-30c-2-10 0-23-3-31C134-8 116 4 85 4 32 4 16-35 15-94c0-66 23-100 70-100zm9 24c-40 0-46 34-46 75 0 40 6 74 45 74 42 0 51-32 51-76 0-42-9-74-50-73" id="aC"/><g id="a"><use transform="matrix(0.06172839506172839,0,0,0.06172839506172839,0,0)" xlink:href="#au"/><use transform="matrix(0.06172839506172839,0,0,0.06172839506172839,14.814814814814813,0)" xlink:href="#av"/><use transform="matrix(0.06172839506172839,0,0,0.06172839506172839,27.160493827160494,0)" xlink:href="#aw"/><use transform="matrix(0.06172839506172839,0,0,0.06172839506172839,34.50617283950617,0)" xlink:href="#ax"/><use transform="matrix(0.06172839506172839,0,0,0.06172839506172839,45.61728395061728,0)" xlink:href="#ay"/><use transform="matrix(0.06172839506172839,0,0,0.06172839506172839,50.49382716049382,0)" xlink:href="#az"/><use transform="matrix(0.06172839506172839,0,0,0.06172839506172839,61.60493827160494,0)" xlink:href="#av"/><use transform="matrix(0.06172839506172839,0,0,0.06172839506172839,73.95061728395062,0)" xlink:href="#aA"/><use transform="matrix(0.06172839506172839,0,0,0.06172839506172839,86.2962962962963,0)" xlink:href="#aw"/><use transform="matrix(0.06172839506172839,0,0,0.06172839506172839,93.64197530864199,0)" xlink:href="#aB"/><use transform="matrix(0.06172839506172839,0,0,0.06172839506172839,105.98765432098767,0)" xlink:href="#ax"/><use transform="matrix(0.06172839506172839,0,0,0.06172839506172839,117.09876543209879,0)" xlink:href="#ay"/><use transform="matrix(0.06172839506172839,0,0,0.06172839506172839,121.97530864197533,0)" xlink:href="#aC"/><use transform="matrix(0.06172839506172839,0,0,0.06172839506172839,134.32098765432102,0)" xlink:href="#av"/><use transform="matrix(0.06172839506172839,0,0,0.06172839506172839,146.66666666666669,0)" xlink:href="#aw"/></g><path fill="#3a414a" d="M33 0v-248h34V0H33" id="aD"/><path fill="#3a414a" d="M30-248c118-7 216 8 213 122C240-48 200 0 122 0H30v-248zM63-27c89 8 146-16 146-99s-60-101-146-95v194" id="aE"/><path fill="#3a414a" d="M240 0l2-218c-23 76-54 145-80 218h-23L58-218 59 0H30v-248h44l77 211c21-75 51-140 76-211h43V0h-30" id="aF"/><g id="b"><use transform="matrix(0.06172839506172839,0,0,0.06172839506172839,0,0)" xlink:href="#aD"/><use transform="matrix(0.06172839506172839,0,0,0.06172839506172839,6.172839506172839,0)" xlink:href="#aE"/><use transform="matrix(0.06172839506172839,0,0,0.06172839506172839,22.160493827160494,0)" xlink:href="#aF"/></g><path fill="#3a414a" d="M143 4C61 4 22-44 18-125c-5-107 100-154 193-111 17 8 29 25 37 43l-32 9c-13-25-37-40-76-40-61 0-88 39-88 99 0 61 29 100 91 101 35 0 62-11 79-27v-45h-74v-28h105v86C228-13 192 4 143 4" id="aG"/><path fill="#3a414a" d="M84 4C-5 8 30-112 23-190h32v120c0 31 7 50 39 49 72-2 45-101 50-169h31l1 190h-30c-1-10 1-25-2-33-11 22-28 36-60 37" id="aH"/><g id="c"><use transform="matrix(0.06172839506172839,0,0,0.06172839506172839,0,0)" xlink:href="#aG"/><use transform="matrix(0.06172839506172839,0,0,0.06172839506172839,17.28395061728395,0)" xlink:href="#aw"/><use transform="matrix(0.06172839506172839,0,0,0.06172839506172839,24.629629629629626,0)" xlink:href="#aH"/><use transform="matrix(0.06172839506172839,0,0,0.06172839506172839,36.9753086419753,0)" xlink:href="#aA"/><use transform="matrix(0.06172839506172839,0,0,0.06172839506172839,49.32098765432098,0)" xlink:href="#aA"/><use transform="matrix(0.06172839506172839,0,0,0.06172839506172839,61.66666666666666,0)" xlink:href="#av"/></g><path fill="#3a414a" d="M100-194c62-1 85 37 85 99 1 63-27 99-86 99S16-35 15-95c0-66 28-99 85-99zM99-20c44 1 53-31 53-75 0-43-8-75-51-75s-53 32-53 75 10 74 51 75zm22-194v-33h29v33h-29zm-69 0v-33h29v33H52" id="aI"/><path fill="#3a414a" d="M106-169C34-169 62-67 57 0H25v-261h32l-1 103c12-21 28-36 61-36 89 0 53 116 60 194h-32v-121c2-32-8-49-39-48" id="aJ"/><path fill="#3a414a" d="M59-47c-2 24 18 29 38 22v24C64 9 27 4 27-40v-127H5v-23h24l9-43h21v43h35v23H59v120" id="aK"/><g id="d"><use transform="matrix(0.049382716049382706,0,0,0.049382716049382706,0,0)" xlink:href="#aF"/><use transform="matrix(0.049382716049382706,0,0,0.049382716049382706,14.765432098765428,0)" xlink:href="#aI"/><use transform="matrix(0.049382716049382706,0,0,0.049382716049382706,24.641975308641968,0)" xlink:href="#az"/><use transform="matrix(0.049382716049382706,0,0,0.049382716049382706,33.53086419753085,0)" xlink:href="#aJ"/><use transform="matrix(0.049382716049382706,0,0,0.049382716049382706,43.40740740740739,0)" xlink:href="#aK"/><use transform="matrix(0.049382716049382706,0,0,0.049382716049382706,48.34567901234566,0)" xlink:href="#av"/></g><g id="e"><use transform="matrix(0.049382716049382706,0,0,0.049382716049382706,0,0)" xlink:href="#au"/><use transform="matrix(0.049382716049382706,0,0,0.049382716049382706,11.85185185185185,0)" xlink:href="#av"/><use transform="matrix(0.049382716049382706,0,0,0.049382716049382706,21.728395061728392,0)" xlink:href="#aw"/><use transform="matrix(0.049382716049382706,0,0,0.049382716049382706,27.604938271604933,0)" xlink:href="#ax"/><use transform="matrix(0.049382716049382706,0,0,0.049382716049382706,36.49382716049382,0)" xlink:href="#ay"/><use transform="matrix(0.049382716049382706,0,0,0.049382716049382706,40.395061728395056,0)" xlink:href="#az"/><use transform="matrix(0.049382716049382706,0,0,0.049382716049382706,49.28395061728394,0)" xlink:href="#av"/><use transform="matrix(0.049382716049382706,0,0,0.049382716049382706,59.16049382716048,0)" xlink:href="#aA"/><use transform="matrix(0.049382716049382706,0,0,0.049382716049382706,69.03703703703702,0)" xlink:href="#aw"/><use transform="matrix(0.049382716049382706,0,0,0.049382716049382706,74.91358024691357,0)" xlink:href="#aB"/><use transform="matrix(0.049382716049382706,0,0,0.049382716049382706,84.79012345679011,0)" xlink:href="#ax"/><use transform="matrix(0.049382716049382706,0,0,0.049382716049382706,93.679012345679,0)" xlink:href="#ay"/><use transform="matrix(0.049382716049382706,0,0,0.049382716049382706,97.58024691358023,0)" xlink:href="#aC"/><use transform="matrix(0.049382716049382706,0,0,0.049382716049382706,107.45679012345677,0)" xlink:href="#av"/><use transform="matrix(0.049382716049382706,0,0,0.049382716049382706,117.33333333333331,0)" xlink:href="#aw"/></g><path fill="#3a414a" d="M141-36C126-15 110 5 73 4 37 3 15-17 15-53c-1-64 63-63 125-63 3-35-9-54-41-54-24 1-41 7-42 31l-33-3c5-37 33-52 76-52 45 0 72 20 72 64v82c-1 20 7 32 28 27v20c-31 9-61-2-59-35zM48-53c0 20 12 33 32 33 41-3 63-29 60-74-43 2-92-5-92 41" id="aL"/><path fill="#3a414a" d="M117-194c89-4 53 116 60 194h-32v-121c0-31-8-49-39-48C34-167 62-67 57 0H25l-1-190h30c1 10-1 24 2 32 11-22 29-35 61-36" id="aM"/><path fill="#3a414a" d="M210-169c-67 3-38 105-44 169h-31v-121c0-29-5-50-35-48C34-165 62-65 56 0H25l-1-190h30c1 10-1 24 2 32 10-44 99-50 107 0 11-21 27-35 58-36 85-2 47 119 55 194h-31v-121c0-29-5-49-35-48" id="aN"/><path fill="#3a414a" d="M24 0v-261h32V0H24" id="aO"/><g id="f"><use transform="matrix(0.049382716049382706,0,0,0.049382716049382706,0,0)" xlink:href="#aL"/><use transform="matrix(0.049382716049382706,0,0,0.049382716049382706,9.87654320987654,0)" xlink:href="#aM"/><use transform="matrix(0.049382716049382706,0,0,0.049382716049382706,19.75308641975308,0)" xlink:href="#aN"/><use transform="matrix(0.049382716049382706,0,0,0.049382716049382706,34.51851851851851,0)" xlink:href="#av"/><use transform="matrix(0.049382716049382706,0,0,0.049382716049382706,44.39506172839505,0)" xlink:href="#aO"/><use transform="matrix(0.049382716049382706,0,0,0.049382716049382706,48.29629629629628,0)" xlink:href="#aC"/><use transform="matrix(0.049382716049382706,0,0,0.049382716049382706,58.172839506172814,0)" xlink:href="#av"/><use transform="matrix(0.049382716049382706,0,0,0.049382716049382706,68.04938271604937,0)" xlink:href="#aM"/></g><path d="M33 0v-248h34V0H33" id="aP"/><path d="M127-220V0H93v-220H8v-28h204v28h-85" id="aQ"/><path d="M212-179c-10-28-35-45-73-45-59 0-87 40-87 99 0 60 29 101 89 101 43 0 62-24 78-52l27 14C228-24 195 4 139 4 59 4 22-46 18-125c-6-104 99-153 187-111 19 9 31 26 39 46" id="aR"/><g id="g"><use transform="matrix(0.05,0,0,0.05,0,0)" xlink:href="#aP"/><use transform="matrix(0.05,0,0,0.05,5,0)" xlink:href="#aQ"/><use transform="matrix(0.05,0,0,0.05,15.950000000000001,0)" xlink:href="#aR"/></g><path d="M143 0L79-87 56-68V0H24v-261h32v163l83-92h37l-77 82L181 0h-38" id="aS"/><path d="M100-194c62-1 85 37 85 99 1 63-27 99-86 99S16-35 15-95c0-66 28-99 85-99zM99-20c44 1 53-31 53-75 0-43-8-75-51-75s-53 32-53 75 10 74 51 75" id="aT"/><path d="M117-194c89-4 53 116 60 194h-32v-121c0-31-8-49-39-48C34-167 62-67 57 0H25l-1-190h30c1 10-1 24 2 32 11-22 29-35 61-36" id="aU"/><path d="M59-47c-2 24 18 29 38 22v24C64 9 27 4 27-40v-127H5v-23h24l9-43h21v43h35v23H59v120" id="aV"/><path d="M141-36C126-15 110 5 73 4 37 3 15-17 15-53c-1-64 63-63 125-63 3-35-9-54-41-54-24 1-41 7-42 31l-33-3c5-37 33-52 76-52 45 0 72 20 72 64v82c-1 20 7 32 28 27v20c-31 9-61-2-59-35zM48-53c0 20 12 33 32 33 41-3 63-29 60-74-43 2-92-5-92 41" id="aW"/><path d="M24-231v-30h32v30H24zM24 0v-190h32V0H24" id="aX"/><path d="M100-194c63 0 86 42 84 106H49c0 40 14 67 53 68 26 1 43-12 49-29l28 8c-11 28-37 45-77 45C44 4 14-33 15-96c1-61 26-98 85-98zm52 81c6-60-76-77-97-28-3 7-6 17-6 28h103" id="aY"/><path d="M114-163C36-179 61-72 57 0H25l-1-190h30c1 12-1 29 2 39 6-27 23-49 58-41v29" id="aZ"/><g id="h"><use transform="matrix(0.05,0,0,0.05,0,0)" xlink:href="#aS"/><use transform="matrix(0.05,0,0,0.05,9,0)" xlink:href="#aT"/><use transform="matrix(0.05,0,0,0.05,19,0)" xlink:href="#aU"/><use transform="matrix(0.05,0,0,0.05,29,0)" xlink:href="#aV"/><use transform="matrix(0.05,0,0,0.05,34,0)" xlink:href="#aW"/><use transform="matrix(0.05,0,0,0.05,44,0)" xlink:href="#aS"/><use transform="matrix(0.05,0,0,0.05,53,0)" xlink:href="#aV"/><use transform="matrix(0.05,0,0,0.05,58,0)" xlink:href="#aX"/><use transform="matrix(0.05,0,0,0.05,61.95,0)" xlink:href="#aY"/><use transform="matrix(0.05,0,0,0.05,71.95,0)" xlink:href="#aZ"/><use transform="matrix(0.05,0,0,0.05,77.9,0)" xlink:href="#aY"/><use transform="matrix(0.05,0,0,0.05,87.9,0)" xlink:href="#aU"/></g><path fill="#3a414a" d="M30 0v-248h187v28H63v79h144v27H63v87h162V0H30" id="ba"/><path fill="#3a414a" d="M141-36C126-15 110 5 73 4 37 3 15-17 15-53c-1-64 63-63 125-63 3-35-9-54-41-54-24 1-41 7-42 31l-33-3c5-37 33-52 76-52 45 0 72 20 72 64v82c-1 20 7 32 28 27v20c-31 9-61-2-59-35zM48-53c0 20 12 33 32 33 41-3 63-29 60-74-43 2-92-5-92 41zm70-161v-33h29v33h-29zm-69 0v-33h29v33H49" id="bb"/><g id="i"><use transform="matrix(0.049382716049382706,0,0,0.049382716049382706,0,0)" xlink:href="#ba"/><use transform="matrix(0.049382716049382706,0,0,0.049382716049382706,11.85185185185185,0)" xlink:href="#aw"/><use transform="matrix(0.049382716049382706,0,0,0.049382716049382706,17.728395061728392,0)" xlink:href="#aJ"/><use transform="matrix(0.049382716049382706,0,0,0.049382716049382706,27.604938271604933,0)" xlink:href="#bb"/><use transform="matrix(0.049382716049382706,0,0,0.049382716049382706,37.481481481481474,0)" xlink:href="#aO"/><use transform="matrix(0.049382716049382706,0,0,0.049382716049382706,41.38271604938271,0)" xlink:href="#aK"/></g><path fill="#3a414a" d="M127-220V0H93v-220H8v-28h204v28h-85" id="bc"/><path fill="#3a414a" d="M143 0L79-87 56-68V0H24v-261h32v163l83-92h37l-77 82L181 0h-38" id="bd"/><g id="j"><use transform="matrix(0.049382716049382706,0,0,0.049382716049382706,0,0)" xlink:href="#bc"/><use transform="matrix(0.049382716049382706,0,0,0.049382716049382706,10.172839506172838,0)" xlink:href="#ay"/><use transform="matrix(0.049382716049382706,0,0,0.049382716049382706,14.07407407407407,0)" xlink:href="#az"/><use transform="matrix(0.049382716049382706,0,0,0.049382716049382706,22.962962962962962,0)" xlink:href="#bd"/><use transform="matrix(0.049382716049382706,0,0,0.049382716049382706,31.851851851851844,0)" xlink:href="#av"/><use transform="matrix(0.049382716049382706,0,0,0.049382716049382706,41.72839506172839,0)" xlink:href="#aK"/></g><path fill="#3a414a" d="M135-143c-3-34-86-38-87 0 15 53 115 12 119 90S17 21 10-45l28-5c4 36 97 45 98 0-10-56-113-15-118-90-4-57 82-63 122-42 12 7 21 19 24 35" id="be"/><g id="k"><use transform="matrix(0.049382716049382706,0,0,0.049382716049382706,0,0)" xlink:href="#ba"/><use transform="matrix(0.049382716049382706,0,0,0.049382716049382706,11.85185185185185,0)" xlink:href="#aw"/><use transform="matrix(0.049382716049382706,0,0,0.049382716049382706,17.728395061728392,0)" xlink:href="#be"/><use transform="matrix(0.049382716049382706,0,0,0.049382716049382706,26.617283950617278,0)" xlink:href="#aK"/><use transform="matrix(0.049382716049382706,0,0,0.049382716049382706,31.55555555555555,0)" xlink:href="#av"/><use transform="matrix(0.049382716049382706,0,0,0.049382716049382706,41.43209876543209,0)" xlink:href="#aO"/><use transform="matrix(0.049382716049382706,0,0,0.049382716049382706,45.33333333333332,0)" xlink:href="#aO"/><use transform="matrix(0.049382716049382706,0,0,0.049382716049382706,49.234567901234556,0)" xlink:href="#av"/></g><path fill="#3a414a" d="M233-177c-1 41-23 64-60 70L243 0h-38l-65-103H63V0H30v-248c88 3 205-21 203 71zM63-129c60-2 137 13 137-47 0-61-80-42-137-45v92" id="bf"/><path fill="#3a414a" d="M63-220v92h138v28H63V0H30v-248h175v28H63" id="bg"/><path fill="#3a414a" d="M212-179c-10-28-35-45-73-45-59 0-87 40-87 99 0 60 29 101 89 101 43 0 62-24 78-52l27 14C228-24 195 4 139 4 59 4 22-46 18-125c-6-104 99-153 187-111 19 9 31 26 39 46" id="bh"/><g id="l"><use transform="matrix(0.049382716049382706,0,0,0.049382716049382706,0,0)" xlink:href="#bf"/><use transform="matrix(0.049382716049382706,0,0,0.049382716049382706,12.790123456790122,0)" xlink:href="#bg"/><use transform="matrix(0.049382716049382706,0,0,0.049382716049382706,23.604938271604937,0)" xlink:href="#bh"/></g><g id="m"><use transform="matrix(0.06172839506172839,0,0,0.06172839506172839,0,0)" xlink:href="#bf"/><use transform="matrix(0.06172839506172839,0,0,0.06172839506172839,15.987654320987653,0)" xlink:href="#bg"/><use transform="matrix(0.06172839506172839,0,0,0.06172839506172839,29.50617283950617,0)" xlink:href="#bh"/></g><g id="n"><use transform="matrix(0.049382716049382706,0,0,0.049382716049382706,0,0)" xlink:href="#bf"/><use transform="matrix(0.049382716049382706,0,0,0.049382716049382706,12.790123456790122,0)" xlink:href="#bg"/><use transform="matrix(0.049382716049382706,0,0,0.049382716049382706,23.604938271604937,0)" xlink:href="#bh"/></g><path fill="#3a414a" d="M9 0v-24l116-142H16v-24h144v24L44-24h123V0H9" id="bi"/><g id="o"><use transform="matrix(0.049382716049382706,0,0,0.049382716049382706,0,0)" xlink:href="#bi"/><use transform="matrix(0.049382716049382706,0,0,0.049382716049382706,8.888888888888888,0)" xlink:href="#aH"/></g><path fill="#3a414a" d="M137 0h-34L2-248h35l83 218 83-218h36" id="bj"/><path fill="#3a414a" d="M177-190C167-65 218 103 67 71c-23-6-38-20-44-43l32-5c15 47 100 32 89-28v-30C133-14 115 1 83 1 29 1 15-40 15-95c0-56 16-97 71-98 29-1 48 16 59 35 1-10 0-23 2-32h30zM94-22c36 0 50-32 50-73 0-42-14-75-50-75-39 0-46 34-46 75s6 73 46 73" id="bk"/><g id="p"><use transform="matrix(0.049382716049382706,0,0,0.049382716049382706,0,0)" xlink:href="#bj"/><use transform="matrix(0.049382716049382706,0,0,0.049382716049382706,10.518518518518515,0)" xlink:href="#aL"/><use transform="matrix(0.049382716049382706,0,0,0.049382716049382706,20.395061728395056,0)" xlink:href="#aO"/><use transform="matrix(0.049382716049382706,0,0,0.049382716049382706,24.29629629629629,0)" xlink:href="#ay"/><use transform="matrix(0.049382716049382706,0,0,0.049382716049382706,28.197530864197525,0)" xlink:href="#aC"/><use transform="matrix(0.049382716049382706,0,0,0.049382716049382706,38.07407407407406,0)" xlink:href="#ay"/><use transform="matrix(0.049382716049382706,0,0,0.049382716049382706,41.975308641975296,0)" xlink:href="#av"/><use transform="matrix(0.049382716049382706,0,0,0.049382716049382706,51.85185185185183,0)" xlink:href="#aw"/><use transform="matrix(0.049382716049382706,0,0,0.049382716049382706,57.72839506172837,0)" xlink:href="#aH"/><use transform="matrix(0.049382716049382706,0,0,0.049382716049382706,67.60493827160492,0)" xlink:href="#aM"/><use transform="matrix(0.049382716049382706,0,0,0.049382716049382706,77.48148148148147,0)" xlink:href="#bk"/></g><g id="q"><use transform="matrix(0.049382716049382706,0,0,0.049382716049382706,0,0)" xlink:href="#aL"/><use transform="matrix(0.049382716049382706,0,0,0.049382716049382706,9.87654320987654,0)" xlink:href="#aM"/></g><path fill="#3a414a" d="M30-248c87 1 191-15 191 75 0 78-77 80-158 76V0H30v-248zm33 125c57 0 124 11 124-50 0-59-68-47-124-48v98" id="bl"/><g id="r"><use transform="matrix(0.049382716049382706,0,0,0.049382716049382706,0,0)" xlink:href="#au"/><use transform="matrix(0.049382716049382706,0,0,0.049382716049382706,11.85185185185185,0)" xlink:href="#bl"/></g><g id="s"><use transform="matrix(0.049382716049382706,0,0,0.049382716049382706,0,0)" xlink:href="#be"/><use transform="matrix(0.049382716049382706,0,0,0.049382716049382706,8.888888888888888,0)" xlink:href="#az"/><use transform="matrix(0.049382716049382706,0,0,0.049382716049382706,17.777777777777775,0)" xlink:href="#aJ"/><use transform="matrix(0.049382716049382706,0,0,0.049382716049382706,27.654320987654316,0)" xlink:href="#ay"/><use transform="matrix(0.049382716049382706,0,0,0.049382716049382706,31.55555555555555,0)" xlink:href="#az"/><use transform="matrix(0.049382716049382706,0,0,0.049382716049382706,40.444444444444436,0)" xlink:href="#bd"/><use transform="matrix(0.049382716049382706,0,0,0.049382716049382706,49.33333333333332,0)" xlink:href="#av"/><use transform="matrix(0.049382716049382706,0,0,0.049382716049382706,59.20987654320985,0)" xlink:href="#aM"/></g><g id="t"><use transform="matrix(0.049382716049382706,0,0,0.049382716049382706,0,0)" xlink:href="#ax"/><use transform="matrix(0.049382716049382706,0,0,0.049382716049382706,8.888888888888888,0)" xlink:href="#aL"/><use transform="matrix(0.049382716049382706,0,0,0.049382716049382706,18.76543209876543,0)" xlink:href="#aO"/><use transform="matrix(0.049382716049382706,0,0,0.049382716049382706,22.666666666666664,0)" xlink:href="#ay"/><use transform="matrix(0.049382716049382706,0,0,0.049382716049382706,26.567901234567895,0)" xlink:href="#aC"/><use transform="matrix(0.049382716049382706,0,0,0.049382716049382706,36.44444444444444,0)" xlink:href="#ay"/><use transform="matrix(0.049382716049382706,0,0,0.049382716049382706,40.34567901234568,0)" xlink:href="#av"/><use transform="matrix(0.049382716049382706,0,0,0.049382716049382706,50.222222222222214,0)" xlink:href="#aw"/><use transform="matrix(0.049382716049382706,0,0,0.049382716049382706,56.09876543209875,0)" xlink:href="#av"/><use transform="matrix(0.049382716049382706,0,0,0.049382716049382706,65.9753086419753,0)" xlink:href="#aM"/></g><path fill="#333" d="M232-93c-1 65-40 97-104 97C67 4 28-28 28-90v-158h33c8 89-33 224 67 224 102 0 64-133 71-224h33v155" id="bm"/><path fill="#333" d="M117-194c89-4 53 116 60 194h-32v-121c0-31-8-49-39-48C34-167 62-67 57 0H25l-1-190h30c1 10-1 24 2 32 11-22 29-35 61-36" id="bn"/><path fill="#333" d="M108 0H70L1-190h34L89-25l56-165h34" id="bo"/><path fill="#333" d="M100-194c62-1 85 37 85 99 1 63-27 99-86 99S16-35 15-95c0-66 28-99 85-99zM99-20c44 1 53-31 53-75 0-43-8-75-51-75s-53 32-53 75 10 74 51 75" id="bp"/><path fill="#333" d="M24 0v-261h32V0H24" id="bq"/><path fill="#333" d="M135-143c-3-34-86-38-87 0 15 53 115 12 119 90S17 21 10-45l28-5c4 36 97 45 98 0-10-56-113-15-118-90-4-57 82-63 122-42 12 7 21 19 24 35" id="br"/><path fill="#333" d="M59-47c-2 24 18 29 38 22v24C64 9 27 4 27-40v-127H5v-23h24l9-43h21v43h35v23H59v120" id="bs"/><path fill="#333" d="M141-36C126-15 110 5 73 4 37 3 15-17 15-53c-1-64 63-63 125-63 3-35-9-54-41-54-24 1-41 7-42 31l-33-3c5-37 33-52 76-52 45 0 72 20 72 64v82c-1 20 7 32 28 27v20c-31 9-61-2-59-35zM48-53c0 20 12 33 32 33 41-3 63-29 60-74-43 2-92-5-92 41zm70-161v-33h29v33h-29zm-69 0v-33h29v33H49" id="bt"/><path fill="#333" d="M85-194c31 0 48 13 60 33l-1-100h32l1 261h-30c-2-10 0-23-3-31C134-8 116 4 85 4 32 4 16-35 15-94c0-66 23-100 70-100zm9 24c-40 0-46 34-46 75 0 40 6 74 45 74 42 0 51-32 51-76 0-42-9-74-50-73" id="bu"/><path fill="#333" d="M24-231v-30h32v30H24zM24 0v-190h32V0H24" id="bv"/><path fill="#333" d="M177-190C167-65 218 103 67 71c-23-6-38-20-44-43l32-5c15 47 100 32 89-28v-30C133-14 115 1 83 1 29 1 15-40 15-95c0-56 16-97 71-98 29-1 48 16 59 35 1-10 0-23 2-32h30zM94-22c36 0 50-32 50-73 0-42-14-75-50-75-39 0-46 34-46 75s6 73 46 73" id="bw"/><path fill="#333" d="M0 4l72-265h28L28 4H0" id="bx"/><g id="u"><use transform="matrix(0.04938271604938272,0,0,0.04938271604938272,0,0)" xlink:href="#bm"/><use transform="matrix(0.04938271604938272,0,0,0.04938271604938272,12.790123456790125,0)" xlink:href="#bn"/><use transform="matrix(0.04938271604938272,0,0,0.04938271604938272,22.66666666666667,0)" xlink:href="#bo"/><use transform="matrix(0.04938271604938272,0,0,0.04938271604938272,31.555555555555557,0)" xlink:href="#bp"/><use transform="matrix(0.04938271604938272,0,0,0.04938271604938272,41.4320987654321,0)" xlink:href="#bq"/><use transform="matrix(0.04938271604938272,0,0,0.04938271604938272,45.333333333333336,0)" xlink:href="#bq"/><use transform="matrix(0.04938271604938272,0,0,0.04938271604938272,49.23456790123457,0)" xlink:href="#br"/><use transform="matrix(0.04938271604938272,0,0,0.04938271604938272,58.12345679012345,0)" xlink:href="#bs"/><use transform="matrix(0.04938271604938272,0,0,0.04938271604938272,63.06172839506172,0)" xlink:href="#bt"/><use transform="matrix(0.04938271604938272,0,0,0.04938271604938272,72.93827160493828,0)" xlink:href="#bn"/><use transform="matrix(0.04938271604938272,0,0,0.04938271604938272,82.81481481481482,0)" xlink:href="#bu"/><use transform="matrix(0.04938271604938272,0,0,0.04938271604938272,92.69135802469137,0)" xlink:href="#bv"/><use transform="matrix(0.04938271604938272,0,0,0.04938271604938272,96.59259259259261,0)" xlink:href="#bw"/><use transform="matrix(0.04938271604938272,0,0,0.04938271604938272,106.46913580246914,0)" xlink:href="#bx"/></g><path fill="#333" d="M63-220v92h138v28H63V0H30v-248h175v28H63" id="by"/><path fill="#333" d="M100-194c63 0 86 42 84 106H49c0 40 14 67 53 68 26 1 43-12 49-29l28 8c-11 28-37 45-77 45C44 4 14-33 15-96c1-61 26-98 85-98zm52 81c6-60-76-77-97-28-3 7-6 17-6 28h103" id="bz"/><path fill="#333" d="M106-169C34-169 62-67 57 0H25v-261h32l-1 103c12-21 28-36 61-36 89 0 53 116 60 194h-32v-121c2-32-8-49-39-48" id="bA"/><path fill="#333" d="M114-163C36-179 61-72 57 0H25l-1-190h30c1 12-1 29 2 39 6-27 23-49 58-41v29" id="bB"/><g id="v"><use transform="matrix(0.04938271604938272,0,0,0.04938271604938272,0,0)" xlink:href="#by"/><use transform="matrix(0.04938271604938272,0,0,0.04938271604938272,10.814814814814815,0)" xlink:href="#bz"/><use transform="matrix(0.04938271604938272,0,0,0.04938271604938272,20.69135802469136,0)" xlink:href="#bA"/><use transform="matrix(0.04938271604938272,0,0,0.04938271604938272,30.567901234567906,0)" xlink:href="#bq"/><use transform="matrix(0.04938271604938272,0,0,0.04938271604938272,34.46913580246914,0)" xlink:href="#bz"/><use transform="matrix(0.04938271604938272,0,0,0.04938271604938272,44.345679012345684,0)" xlink:href="#bB"/></g><path fill="#3a414a" d="M85 4C-4 8 31-112 24-190h32v120c0 31 7 50 39 49 72-2 45-101 50-169h31l1 190h-30c-1-10 1-25-2-33-11 22-28 36-60 37zm34-218v-33h29v33h-29zm-69 0v-33h29v33H50" id="bC"/><path fill="#3a414a" d="M101-234c-31-9-42 10-38 44h38v23H63V0H32v-167H5v-23h27c-7-52 17-82 69-68v24" id="bD"/><g id="w"><use transform="matrix(0.049382716049382706,0,0,0.049382716049382706,0,0)" xlink:href="#bf"/><use transform="matrix(0.049382716049382706,0,0,0.049382716049382706,12.790123456790122,0)" xlink:href="#bC"/><use transform="matrix(0.049382716049382706,0,0,0.049382716049382706,22.666666666666664,0)" xlink:href="#az"/><use transform="matrix(0.049382716049382706,0,0,0.049382716049382706,31.55555555555555,0)" xlink:href="#bd"/><use transform="matrix(0.049382716049382706,0,0,0.049382716049382706,40.444444444444436,0)" xlink:href="#bD"/><use transform="matrix(0.049382716049382706,0,0,0.049382716049382706,45.38271604938271,0)" xlink:href="#aw"/><use transform="matrix(0.049382716049382706,0,0,0.049382716049382706,51.25925925925925,0)" xlink:href="#aL"/><use transform="matrix(0.049382716049382706,0,0,0.049382716049382706,61.135802469135804,0)" xlink:href="#bk"/><use transform="matrix(0.049382716049382706,0,0,0.049382716049382706,71.01234567901234,0)" xlink:href="#av"/><use transform="matrix(0.049382716049382706,0,0,0.049382716049382706,80.88888888888889,0)" xlink:href="#aM"/></g><g id="x"><use transform="matrix(0.049382716049382706,0,0,0.049382716049382706,0,0)" xlink:href="#bd"/><use transform="matrix(0.049382716049382706,0,0,0.049382716049382706,8.888888888888888,0)" xlink:href="#aO"/><use transform="matrix(0.049382716049382706,0,0,0.049382716049382706,12.790123456790122,0)" xlink:href="#bb"/><use transform="matrix(0.049382716049382706,0,0,0.049382716049382706,22.666666666666664,0)" xlink:href="#aw"/><use transform="matrix(0.049382716049382706,0,0,0.049382716049382706,28.543209876543205,0)" xlink:href="#av"/><use transform="matrix(0.049382716049382706,0,0,0.049382716049382706,38.419753086419746,0)" xlink:href="#aM"/></g><g id="y"><use transform="matrix(0.049382716049382706,0,0,0.049382716049382706,0,0)" xlink:href="#aH"/><use transform="matrix(0.049382716049382706,0,0,0.049382716049382706,9.87654320987654,0)" xlink:href="#aM"/><use transform="matrix(0.049382716049382706,0,0,0.049382716049382706,19.75308641975308,0)" xlink:href="#aC"/></g><g id="z"><use transform="matrix(0.049382716049382706,0,0,0.049382716049382706,0,0)" xlink:href="#aD"/><use transform="matrix(0.049382716049382706,0,0,0.049382716049382706,4.93827160493827,0)" xlink:href="#aM"/><use transform="matrix(0.049382716049382706,0,0,0.049382716049382706,14.814814814814811,0)" xlink:href="#bD"/><use transform="matrix(0.049382716049382706,0,0,0.049382716049382706,19.75308641975308,0)" xlink:href="#aB"/><use transform="matrix(0.049382716049382706,0,0,0.049382716049382706,29.629629629629623,0)" xlink:href="#aw"/><use transform="matrix(0.049382716049382706,0,0,0.049382716049382706,35.50617283950616,0)" xlink:href="#aN"/><use transform="matrix(0.049382716049382706,0,0,0.049382716049382706,50.271604938271594,0)" xlink:href="#aL"/><use transform="matrix(0.049382716049382706,0,0,0.049382716049382706,60.14814814814814,0)" xlink:href="#aK"/><use transform="matrix(0.049382716049382706,0,0,0.049382716049382706,65.0864197530864,0)" xlink:href="#ay"/><use transform="matrix(0.049382716049382706,0,0,0.049382716049382706,68.98765432098763,0)" xlink:href="#aB"/><use transform="matrix(0.049382716049382706,0,0,0.049382716049382706,78.86419753086417,0)" xlink:href="#aM"/><use transform="matrix(0.049382716049382706,0,0,0.049382716049382706,88.74074074074072,0)" xlink:href="#av"/><use transform="matrix(0.049382716049382706,0,0,0.049382716049382706,98.61728395061726,0)" xlink:href="#aM"/></g><g id="A"><use transform="matrix(0.049382716049382706,0,0,0.049382716049382706,0,0)" xlink:href="#bj"/><use transform="matrix(0.049382716049382706,0,0,0.049382716049382706,10.864197530864196,0)" xlink:href="#av"/><use transform="matrix(0.049382716049382706,0,0,0.049382716049382706,20.740740740740737,0)" xlink:href="#aw"/><use transform="matrix(0.049382716049382706,0,0,0.049382716049382706,26.617283950617278,0)" xlink:href="#ax"/><use transform="matrix(0.049382716049382706,0,0,0.049382716049382706,35.50617283950616,0)" xlink:href="#aB"/><use transform="matrix(0.049382716049382706,0,0,0.049382716049382706,45.38271604938271,0)" xlink:href="#aO"/><use transform="matrix(0.049382716049382706,0,0,0.049382716049382706,49.28395061728394,0)" xlink:href="#aO"/><use transform="matrix(0.049382716049382706,0,0,0.049382716049382706,53.185185185185176,0)" xlink:href="#be"/><use transform="matrix(0.049382716049382706,0,0,0.049382716049382706,62.07407407407406,0)" xlink:href="#aK"/><use transform="matrix(0.049382716049382706,0,0,0.049382716049382706,67.01234567901233,0)" xlink:href="#bb"/><use transform="matrix(0.049382716049382706,0,0,0.049382716049382706,76.88888888888887,0)" xlink:href="#aM"/><use transform="matrix(0.049382716049382706,0,0,0.049382716049382706,86.76543209876542,0)" xlink:href="#aC"/><use transform="matrix(0.049382716049382706,0,0,0.049382716049382706,96.64197530864196,0)" xlink:href="#ay"/><use transform="matrix(0.049382716049382706,0,0,0.049382716049382706,100.54320987654319,0)" xlink:href="#bk"/><use transform="matrix(0.049382716049382706,0,0,0.049382716049382706,110.41975308641973,0)" xlink:href="#av"/><use transform="matrix(0.049382716049382706,0,0,0.049382716049382706,120.29629629629628,0)" xlink:href="#aM"/></g><path fill="#333" d="M137 0h-34L2-248h35l83 218 83-218h36" id="bE"/><g id="B"><use transform="matrix(0.04938271604938272,0,0,0.04938271604938272,0,0)" xlink:href="#bE"/><use transform="matrix(0.04938271604938272,0,0,0.04938271604938272,10.864197530864198,0)" xlink:href="#bp"/><use transform="matrix(0.04938271604938272,0,0,0.04938271604938272,20.74074074074074,0)" xlink:href="#bq"/><use transform="matrix(0.04938271604938272,0,0,0.04938271604938272,24.641975308641975,0)" xlink:href="#bq"/><use transform="matrix(0.04938271604938272,0,0,0.04938271604938272,28.543209876543205,0)" xlink:href="#br"/><use transform="matrix(0.04938271604938272,0,0,0.04938271604938272,37.4320987654321,0)" xlink:href="#bs"/><use transform="matrix(0.04938271604938272,0,0,0.04938271604938272,42.370370370370374,0)" xlink:href="#bt"/><use transform="matrix(0.04938271604938272,0,0,0.04938271604938272,52.24691358024692,0)" xlink:href="#bn"/><use transform="matrix(0.04938271604938272,0,0,0.04938271604938272,62.12345679012346,0)" xlink:href="#bu"/><use transform="matrix(0.04938271604938272,0,0,0.04938271604938272,72,0)" xlink:href="#bv"/><use transform="matrix(0.04938271604938272,0,0,0.04938271604938272,75.90123456790124,0)" xlink:href="#bw"/></g><path d="M30 0v-248h187v28H63v79h144v27H63v87h162V0H30" id="bF"/><path d="M177-190C167-65 218 103 67 71c-23-6-38-20-44-43l32-5c15 47 100 32 89-28v-30C133-14 115 1 83 1 29 1 15-40 15-95c0-56 16-97 71-98 29-1 48 16 59 35 1-10 0-23 2-32h30zM94-22c36 0 50-32 50-73 0-42-14-75-50-75-39 0-46 34-46 75s6 73 46 73" id="bG"/><path d="M141-36C126-15 110 5 73 4 37 3 15-17 15-53c-1-64 63-63 125-63 3-35-9-54-41-54-24 1-41 7-42 31l-33-3c5-37 33-52 76-52 45 0 72 20 72 64v82c-1 20 7 32 28 27v20c-31 9-61-2-59-35zM48-53c0 20 12 33 32 33 41-3 63-29 60-74-43 2-92-5-92 41zm70-161v-33h29v33h-29zm-69 0v-33h29v33H49" id="bH"/><path d="M9 0v-24l116-142H16v-24h144v24L44-24h123V0H9" id="bI"/><path d="M85-194c31 0 48 13 60 33l-1-100h32l1 261h-30c-2-10 0-23-3-31C134-8 116 4 85 4 32 4 16-35 15-94c0-66 23-100 70-100zm9 24c-40 0-46 34-46 75 0 40 6 74 45 74 42 0 51-32 51-76 0-42-9-74-50-73" id="bJ"/><g id="C"><use transform="matrix(0.05,0,0,0.05,0,0)" xlink:href="#bF"/><use transform="matrix(0.05,0,0,0.05,12,0)" xlink:href="#aZ"/><use transform="matrix(0.05,0,0,0.05,17.95,0)" xlink:href="#bG"/><use transform="matrix(0.05,0,0,0.05,27.950000000000003,0)" xlink:href="#bH"/><use transform="matrix(0.05,0,0,0.05,37.95,0)" xlink:href="#aU"/><use transform="matrix(0.05,0,0,0.05,47.95,0)" xlink:href="#bI"/><use transform="matrix(0.05,0,0,0.05,56.95,0)" xlink:href="#aY"/><use transform="matrix(0.05,0,0,0.05,66.95,0)" xlink:href="#aU"/><use transform="matrix(0.05,0,0,0.05,76.95,0)" xlink:href="#bJ"/><use transform="matrix(0.05,0,0,0.05,86.95,0)" xlink:href="#aY"/></g><path d="M101-234c-31-9-42 10-38 44h38v23H63V0H32v-167H5v-23h27c-7-52 17-82 69-68v24" id="bK"/><path d="M210-169c-67 3-38 105-44 169h-31v-121c0-29-5-50-35-48C34-165 62-65 56 0H25l-1-190h30c1 10-1 24 2 32 10-44 99-50 107 0 11-21 27-35 58-36 85-2 47 119 55 194h-31v-121c0-29-5-49-35-48" id="bL"/><g id="D"><use transform="matrix(0.05,0,0,0.05,0,0)" xlink:href="#aP"/><use transform="matrix(0.05,0,0,0.05,5,0)" xlink:href="#aU"/><use transform="matrix(0.05,0,0,0.05,15,0)" xlink:href="#bK"/><use transform="matrix(0.05,0,0,0.05,20,0)" xlink:href="#aT"/><use transform="matrix(0.05,0,0,0.05,30,0)" xlink:href="#aZ"/><use transform="matrix(0.05,0,0,0.05,35.95,0)" xlink:href="#bL"/><use transform="matrix(0.05,0,0,0.05,50.900000000000006,0)" xlink:href="#aW"/><use transform="matrix(0.05,0,0,0.05,60.900000000000006,0)" xlink:href="#aV"/><use transform="matrix(0.05,0,0,0.05,65.9,0)" xlink:href="#aX"/><use transform="matrix(0.05,0,0,0.05,69.85000000000001,0)" xlink:href="#aT"/><use transform="matrix(0.05,0,0,0.05,79.85000000000001,0)" xlink:href="#aU"/><use transform="matrix(0.05,0,0,0.05,89.85000000000001,0)" xlink:href="#aY"/><use transform="matrix(0.05,0,0,0.05,99.85000000000001,0)" xlink:href="#aU"/></g><g id="E"><use transform="matrix(0.05,0,0,0.05,0,0)" xlink:href="#aW"/><use transform="matrix(0.05,0,0,0.05,10,0)" xlink:href="#aU"/><use transform="matrix(0.05,0,0,0.05,20,0)" xlink:href="#bK"/><use transform="matrix(0.05,0,0,0.05,25,0)" xlink:href="#aT"/><use transform="matrix(0.05,0,0,0.05,35,0)" xlink:href="#aZ"/><use transform="matrix(0.05,0,0,0.05,40.95,0)" xlink:href="#bJ"/><use transform="matrix(0.05,0,0,0.05,50.95,0)" xlink:href="#aY"/><use transform="matrix(0.05,0,0,0.05,60.95,0)" xlink:href="#aZ"/><use transform="matrix(0.05,0,0,0.05,66.9,0)" xlink:href="#aU"/></g><g id="F"><use transform="matrix(0.049382716049382706,0,0,0.049382716049382706,0,0)" xlink:href="#bf"/><use transform="matrix(0.049382716049382706,0,0,0.049382716049382706,12.790123456790122,0)" xlink:href="#ay"/><use transform="matrix(0.049382716049382706,0,0,0.049382716049382706,16.691358024691354,0)" xlink:href="#az"/><use transform="matrix(0.049382716049382706,0,0,0.049382716049382706,25.580246913580243,0)" xlink:href="#aJ"/><use transform="matrix(0.049382716049382706,0,0,0.049382716049382706,35.456790123456784,0)" xlink:href="#aK"/><use transform="matrix(0.049382716049382706,0,0,0.049382716049382706,40.395061728395056,0)" xlink:href="#av"/></g><path fill="#3a414a" d="M209 0H11v-25l151-195H24v-28h176v25L50-27h159V0" id="bM"/><g id="G"><use transform="matrix(0.049382716049382706,0,0,0.049382716049382706,0,0)" xlink:href="#bM"/><use transform="matrix(0.049382716049382706,0,0,0.049382716049382706,10.814814814814813,0)" xlink:href="#aH"/><use transform="matrix(0.049382716049382706,0,0,0.049382716049382706,20.691358024691354,0)" xlink:href="#bk"/><use transform="matrix(0.049382716049382706,0,0,0.049382716049382706,30.567901234567895,0)" xlink:href="#aL"/><use transform="matrix(0.049382716049382706,0,0,0.049382716049382706,40.444444444444436,0)" xlink:href="#aM"/><use transform="matrix(0.049382716049382706,0,0,0.049382716049382706,50.32098765432097,0)" xlink:href="#bk"/></g><g id="H"><use transform="matrix(0.049382716049382706,0,0,0.049382716049382706,0,0)" xlink:href="#bi"/><use transform="matrix(0.049382716049382706,0,0,0.049382716049382706,8.888888888888888,0)" xlink:href="#aH"/><use transform="matrix(0.049382716049382706,0,0,0.049382716049382706,18.76543209876543,0)" xlink:href="#aN"/></g><path fill="#3a414a" d="M179-190L93 31C79 59 56 82 12 73V49c39 6 53-20 64-50L1-190h34L92-34l54-156h33" id="bN"/><g id="I"><use transform="matrix(0.049382716049382706,0,0,0.049382716049382706,0,0)" xlink:href="#bc"/><use transform="matrix(0.049382716049382706,0,0,0.049382716049382706,8.839506172839505,0)" xlink:href="#av"/><use transform="matrix(0.049382716049382706,0,0,0.049382716049382706,18.716049382716044,0)" xlink:href="#be"/><use transform="matrix(0.049382716049382706,0,0,0.049382716049382706,27.604938271604926,0)" xlink:href="#aK"/><use transform="matrix(0.049382716049382706,0,0,0.049382716049382706,32.5432098765432,0)" xlink:href="#be"/><use transform="matrix(0.049382716049382706,0,0,0.049382716049382706,41.43209876543209,0)" xlink:href="#bN"/><use transform="matrix(0.049382716049382706,0,0,0.049382716049382706,50.32098765432097,0)" xlink:href="#be"/><use transform="matrix(0.049382716049382706,0,0,0.049382716049382706,59.20987654320985,0)" xlink:href="#aK"/><use transform="matrix(0.049382716049382706,0,0,0.049382716049382706,64.14814814814812,0)" xlink:href="#av"/><use transform="matrix(0.049382716049382706,0,0,0.049382716049382706,74.02469135802467,0)" xlink:href="#aN"/></g><g id="J"><use transform="matrix(0.049382716049382706,0,0,0.049382716049382706,0,0)" xlink:href="#av"/><use transform="matrix(0.049382716049382706,0,0,0.049382716049382706,9.87654320987654,0)" xlink:href="#ay"/><use transform="matrix(0.049382716049382706,0,0,0.049382716049382706,13.777777777777775,0)" xlink:href="#aM"/></g><g id="K"><use transform="matrix(0.04938271604938272,0,0,0.04938271604938272,0,0)" xlink:href="#bl"/><use transform="matrix(0.04938271604938272,0,0,0.04938271604938272,11.851851851851853,0)" xlink:href="#aw"/><use transform="matrix(0.04938271604938272,0,0,0.04938271604938272,17.728395061728396,0)" xlink:href="#bC"/><use transform="matrix(0.04938271604938272,0,0,0.04938271604938272,27.60493827160494,0)" xlink:href="#bD"/><use transform="matrix(0.04938271604938272,0,0,0.04938271604938272,32.543209876543216,0)" xlink:href="#av"/></g><g id="L"><use transform="matrix(0.04938271604938272,0,0,0.04938271604938272,0,0)" xlink:href="#bj"/><use transform="matrix(0.04938271604938272,0,0,0.04938271604938272,10.864197530864198,0)" xlink:href="#aB"/><use transform="matrix(0.04938271604938272,0,0,0.04938271604938272,20.74074074074074,0)" xlink:href="#aO"/><use transform="matrix(0.04938271604938272,0,0,0.04938271604938272,24.641975308641975,0)" xlink:href="#aO"/><use transform="matrix(0.04938271604938272,0,0,0.04938271604938272,28.543209876543205,0)" xlink:href="#be"/><use transform="matrix(0.04938271604938272,0,0,0.04938271604938272,37.4320987654321,0)" xlink:href="#aK"/><use transform="matrix(0.04938271604938272,0,0,0.04938271604938272,42.370370370370374,0)" xlink:href="#bb"/><use transform="matrix(0.04938271604938272,0,0,0.04938271604938272,52.24691358024692,0)" xlink:href="#aM"/><use transform="matrix(0.04938271604938272,0,0,0.04938271604938272,62.12345679012346,0)" xlink:href="#aC"/><use transform="matrix(0.04938271604938272,0,0,0.04938271604938272,72,0)" xlink:href="#ay"/><use transform="matrix(0.04938271604938272,0,0,0.04938271604938272,75.90123456790124,0)" xlink:href="#bk"/><use transform="matrix(0.04938271604938272,0,0,0.04938271604938272,85.77777777777779,0)" xlink:href="#bd"/><use transform="matrix(0.04938271604938272,0,0,0.04938271604938272,94.66666666666667,0)" xlink:href="#av"/><use transform="matrix(0.04938271604938272,0,0,0.04938271604938272,104.54320987654322,0)" xlink:href="#ay"/><use transform="matrix(0.04938271604938272,0,0,0.04938271604938272,108.44444444444446,0)" xlink:href="#aK"/></g><g id="M"><use transform="matrix(0.04938271604938272,0,0,0.04938271604938272,0,0)" xlink:href="#aC"/><use transform="matrix(0.04938271604938272,0,0,0.04938271604938272,9.876543209876544,0)" xlink:href="#av"/><use transform="matrix(0.04938271604938272,0,0,0.04938271604938272,19.75308641975309,0)" xlink:href="#aw"/></g><g id="N"><use transform="matrix(0.04938271604938272,0,0,0.04938271604938272,0,0)" xlink:href="#aD"/><use transform="matrix(0.04938271604938272,0,0,0.04938271604938272,4.938271604938272,0)" xlink:href="#aM"/><use transform="matrix(0.04938271604938272,0,0,0.04938271604938272,14.814814814814817,0)" xlink:href="#bD"/><use transform="matrix(0.04938271604938272,0,0,0.04938271604938272,19.75308641975309,0)" xlink:href="#aB"/><use transform="matrix(0.04938271604938272,0,0,0.04938271604938272,29.629629629629633,0)" xlink:href="#aw"/><use transform="matrix(0.04938271604938272,0,0,0.04938271604938272,35.50617283950618,0)" xlink:href="#aN"/><use transform="matrix(0.04938271604938272,0,0,0.04938271604938272,50.27160493827161,0)" xlink:href="#aL"/><use transform="matrix(0.04938271604938272,0,0,0.04938271604938272,60.14814814814815,0)" xlink:href="#aK"/><use transform="matrix(0.04938271604938272,0,0,0.04938271604938272,65.08641975308643,0)" xlink:href="#ay"/><use transform="matrix(0.04938271604938272,0,0,0.04938271604938272,68.98765432098767,0)" xlink:href="#aB"/><use transform="matrix(0.04938271604938272,0,0,0.04938271604938272,78.86419753086422,0)" xlink:href="#aM"/><use transform="matrix(0.04938271604938272,0,0,0.04938271604938272,88.74074074074076,0)" xlink:href="#av"/><use transform="matrix(0.04938271604938272,0,0,0.04938271604938272,98.6172839506173,0)" xlink:href="#aM"/></g><path d="M30-248c87 1 191-15 191 75 0 78-77 80-158 76V0H30v-248zm33 125c57 0 124 11 124-50 0-59-68-47-124-48v98" id="bO"/><path d="M135-143c-3-34-86-38-87 0 15 53 115 12 119 90S17 21 10-45l28-5c4 36 97 45 98 0-10-56-113-15-118-90-4-57 82-63 122-42 12 7 21 19 24 35" id="bP"/><g id="O"><use transform="matrix(0.05,0,0,0.05,0,0)" xlink:href="#bO"/><use transform="matrix(0.05,0,0,0.05,12,0)" xlink:href="#aW"/><use transform="matrix(0.05,0,0,0.05,22,0)" xlink:href="#bP"/><use transform="matrix(0.05,0,0,0.05,31,0)" xlink:href="#bP"/><use transform="matrix(0.05,0,0,0.05,40,0)" xlink:href="#aY"/></g><path d="M233-177c-1 41-23 64-60 70L243 0h-38l-65-103H63V0H30v-248c88 3 205-21 203 71zM63-129c60-2 137 13 137-47 0-61-80-42-137-45v92" id="bQ"/><path d="M63-220v92h138v28H63V0H30v-248h175v28H63" id="bR"/><g id="P"><use transform="matrix(0.05,0,0,0.05,0,0)" xlink:href="#bQ"/><use transform="matrix(0.05,0,0,0.05,12.950000000000001,0)" xlink:href="#bR"/><use transform="matrix(0.05,0,0,0.05,23.900000000000002,0)" xlink:href="#aR"/></g><g id="Q"><use transform="matrix(0.05,0,0,0.05,0,0)" xlink:href="#aW"/><use transform="matrix(0.05,0,0,0.05,10,0)" xlink:href="#aU"/></g><path d="M137 0h-34L2-248h35l83 218 83-218h36" id="bS"/><path d="M108 0H70L1-190h34L89-25l56-165h34" id="bT"/><path d="M24 0v-261h32V0H24" id="bU"/><g id="R"><use transform="matrix(0.05,0,0,0.05,0,0)" xlink:href="#bS"/><use transform="matrix(0.05,0,0,0.05,11,0)" xlink:href="#aY"/><use transform="matrix(0.05,0,0,0.05,21,0)" xlink:href="#aZ"/><use transform="matrix(0.05,0,0,0.05,26.950000000000003,0)" xlink:href="#bT"/><use transform="matrix(0.05,0,0,0.05,35.95,0)" xlink:href="#aT"/><use transform="matrix(0.05,0,0,0.05,45.95,0)" xlink:href="#bU"/><use transform="matrix(0.05,0,0,0.05,49.900000000000006,0)" xlink:href="#bU"/><use transform="matrix(0.05,0,0,0.05,53.85,0)" xlink:href="#bP"/><use transform="matrix(0.05,0,0,0.05,62.85,0)" xlink:href="#aV"/><use transform="matrix(0.05,0,0,0.05,67.85000000000001,0)" xlink:href="#bH"/><use transform="matrix(0.05,0,0,0.05,77.85000000000001,0)" xlink:href="#aU"/><use transform="matrix(0.05,0,0,0.05,87.85000000000001,0)" xlink:href="#bJ"/><use transform="matrix(0.05,0,0,0.05,97.85000000000001,0)" xlink:href="#aX"/><use transform="matrix(0.05,0,0,0.05,101.80000000000001,0)" xlink:href="#bG"/><use transform="matrix(0.05,0,0,0.05,111.80000000000001,0)" xlink:href="#aV"/><use transform="matrix(0.05,0,0,0.05,116.80000000000001,0)" xlink:href="#aY"/></g><g id="S"><use transform="matrix(0.05,0,0,0.05,0,0)" xlink:href="#aP"/><use transform="matrix(0.05,0,0,0.05,5,0)" xlink:href="#aU"/><use transform="matrix(0.05,0,0,0.05,15,0)" xlink:href="#bK"/><use transform="matrix(0.05,0,0,0.05,20,0)" xlink:href="#aT"/><use transform="matrix(0.05,0,0,0.05,30,0)" xlink:href="#aZ"/><use transform="matrix(0.05,0,0,0.05,35.95,0)" xlink:href="#bL"/><use transform="matrix(0.05,0,0,0.05,50.900000000000006,0)" xlink:href="#aW"/><use transform="matrix(0.05,0,0,0.05,60.900000000000006,0)" xlink:href="#aV"/><use transform="matrix(0.05,0,0,0.05,65.9,0)" xlink:href="#aX"/><use transform="matrix(0.05,0,0,0.05,69.85000000000001,0)" xlink:href="#aT"/><use transform="matrix(0.05,0,0,0.05,79.85000000000001,0)" xlink:href="#aU"/><use transform="matrix(0.05,0,0,0.05,89.85000000000001,0)" xlink:href="#aY"/><use transform="matrix(0.05,0,0,0.05,99.85000000000001,0)" xlink:href="#aU"/></g><path d="M96-169c-40 0-48 33-48 73s9 75 48 75c24 0 41-14 43-38l32 2c-6 37-31 61-74 61-59 0-76-41-82-99-10-93 101-131 147-64 4 7 5 14 7 22l-32 3c-4-21-16-35-41-35" id="bV"/><path d="M106-169C34-169 62-67 57 0H25v-261h32l-1 103c12-21 28-36 61-36 89 0 53 116 60 194h-32v-121c2-32-8-49-39-48" id="bW"/><g id="T"><use transform="matrix(0.05,0,0,0.05,0,0)" xlink:href="#bT"/><use transform="matrix(0.05,0,0,0.05,9,0)" xlink:href="#aY"/><use transform="matrix(0.05,0,0,0.05,19,0)" xlink:href="#aZ"/><use transform="matrix(0.05,0,0,0.05,24.95,0)" xlink:href="#bP"/><use transform="matrix(0.05,0,0,0.05,33.95,0)" xlink:href="#bV"/><use transform="matrix(0.05,0,0,0.05,42.95,0)" xlink:href="#bW"/><use transform="matrix(0.05,0,0,0.05,52.95,0)" xlink:href="#aX"/><use transform="matrix(0.05,0,0,0.05,56.900000000000006,0)" xlink:href="#bV"/><use transform="matrix(0.05,0,0,0.05,65.9,0)" xlink:href="#aS"/><use transform="matrix(0.05,0,0,0.05,74.9,0)" xlink:href="#aY"/><use transform="matrix(0.05,0,0,0.05,84.9,0)" xlink:href="#aU"/></g><g id="U"><use transform="matrix(0.04938271604938272,0,0,0.04938271604938272,0,0)" xlink:href="#by"/><use transform="matrix(0.04938271604938272,0,0,0.04938271604938272,10.814814814814815,0)" xlink:href="#bz"/><use transform="matrix(0.04938271604938272,0,0,0.04938271604938272,20.69135802469136,0)" xlink:href="#bA"/><use transform="matrix(0.04938271604938272,0,0,0.04938271604938272,30.567901234567906,0)" xlink:href="#bq"/><use transform="matrix(0.04938271604938272,0,0,0.04938271604938272,34.46913580246914,0)" xlink:href="#bz"/><use transform="matrix(0.04938271604938272,0,0,0.04938271604938272,44.345679012345684,0)" xlink:href="#bB"/></g><path fill="#333" d="M96-169c-40 0-48 33-48 73s9 75 48 75c24 0 41-14 43-38l32 2c-6 37-31 61-74 61-59 0-76-41-82-99-10-93 101-131 147-64 4 7 5 14 7 22l-32 3c-4-21-16-35-41-35" id="bX"/><path fill="#333" d="M143 0L79-87 56-68V0H24v-261h32v163l83-92h37l-77 82L181 0h-38" id="bY"/><g id="V"><use transform="matrix(0.04938271604938272,0,0,0.04938271604938272,0,0)" xlink:href="#bz"/><use transform="matrix(0.04938271604938272,0,0,0.04938271604938272,9.876543209876544,0)" xlink:href="#bn"/><use transform="matrix(0.04938271604938272,0,0,0.04938271604938272,19.75308641975309,0)" xlink:href="#bs"/><use transform="matrix(0.04938271604938272,0,0,0.04938271604938272,24.69135802469136,0)" xlink:href="#bu"/><use transform="matrix(0.04938271604938272,0,0,0.04938271604938272,34.567901234567906,0)" xlink:href="#bz"/><use transform="matrix(0.04938271604938272,0,0,0.04938271604938272,44.44444444444445,0)" xlink:href="#bX"/><use transform="matrix(0.04938271604938272,0,0,0.04938271604938272,53.333333333333336,0)" xlink:href="#bY"/><use transform="matrix(0.04938271604938272,0,0,0.04938271604938272,62.22222222222223,0)" xlink:href="#bs"/></g><path fill="#333" d="M233-177c-1 41-23 64-60 70L243 0h-38l-65-103H63V0H30v-248c88 3 205-21 203 71zM63-129c60-2 137 13 137-47 0-61-80-42-137-45v92" id="bZ"/><path fill="#333" d="M212-179c-10-28-35-45-73-45-59 0-87 40-87 99 0 60 29 101 89 101 43 0 62-24 78-52l27 14C228-24 195 4 139 4 59 4 22-46 18-125c-6-104 99-153 187-111 19 9 31 26 39 46" id="ca"/><g id="W"><use transform="matrix(0.04938271604938272,0,0,0.04938271604938272,0,0)" xlink:href="#bZ"/><use transform="matrix(0.04938271604938272,0,0,0.04938271604938272,12.790123456790125,0)" xlink:href="#by"/><use transform="matrix(0.04938271604938272,0,0,0.04938271604938272,23.60493827160494,0)" xlink:href="#ca"/></g><path fill="#333" d="M141-36C126-15 110 5 73 4 37 3 15-17 15-53c-1-64 63-63 125-63 3-35-9-54-41-54-24 1-41 7-42 31l-33-3c5-37 33-52 76-52 45 0 72 20 72 64v82c-1 20 7 32 28 27v20c-31 9-61-2-59-35zM48-53c0 20 12 33 32 33 41-3 63-29 60-74-43 2-92-5-92 41" id="cb"/><g id="X"><use transform="matrix(0.04938271604938272,0,0,0.04938271604938272,0,0)" xlink:href="#bo"/><use transform="matrix(0.04938271604938272,0,0,0.04938271604938272,8.88888888888889,0)" xlink:href="#cb"/><use transform="matrix(0.04938271604938272,0,0,0.04938271604938272,18.765432098765434,0)" xlink:href="#bq"/><use transform="matrix(0.04938271604938272,0,0,0.04938271604938272,22.666666666666668,0)" xlink:href="#bv"/><use transform="matrix(0.04938271604938272,0,0,0.04938271604938272,26.567901234567902,0)" xlink:href="#bu"/><use transform="matrix(0.04938271604938272,0,0,0.04938271604938272,36.44444444444444,0)" xlink:href="#bz"/></g><path d="M160-131c35 5 61 23 61 61C221 17 115-2 30 0v-248c76 3 177-17 177 60 0 33-19 50-47 57zm-97-11c50-1 110 9 110-42 0-47-63-36-110-37v79zm0 115c55-2 124 14 124-45 0-56-70-42-124-44v89" id="cc"/><g id="Y"><use transform="matrix(0.05,0,0,0.05,0,0)" xlink:href="#cc"/><use transform="matrix(0.05,0,0,0.05,12,0)" xlink:href="#aY"/><use transform="matrix(0.05,0,0,0.05,22,0)" xlink:href="#bP"/><use transform="matrix(0.05,0,0,0.05,31,0)" xlink:href="#aV"/><use transform="matrix(0.05,0,0,0.05,36,0)" xlink:href="#bH"/><use transform="matrix(0.05,0,0,0.05,46,0)" xlink:href="#aV"/><use transform="matrix(0.05,0,0,0.05,51,0)" xlink:href="#aX"/><use transform="matrix(0.05,0,0,0.05,54.95,0)" xlink:href="#bG"/><use transform="matrix(0.05,0,0,0.05,64.95,0)" xlink:href="#aY"/><use transform="matrix(0.05,0,0,0.05,74.95,0)" xlink:href="#aU"/></g><g id="Z"><use transform="matrix(0.049382716049382706,0,0,0.049382716049382706,0,0)" xlink:href="#ay"/><use transform="matrix(0.049382716049382706,0,0,0.049382716049382706,3.9012345679012337,0)" xlink:href="#aM"/></g><g id="aa"><use transform="matrix(0.049382716049382706,0,0,0.049382716049382706,0,0)" xlink:href="#be"/><use transform="matrix(0.049382716049382706,0,0,0.049382716049382706,8.888888888888888,0)" xlink:href="#aK"/><use transform="matrix(0.049382716049382706,0,0,0.049382716049382706,13.827160493827158,0)" xlink:href="#aB"/><use transform="matrix(0.049382716049382706,0,0,0.049382716049382706,23.7037037037037,0)" xlink:href="#aw"/><use transform="matrix(0.049382716049382706,0,0,0.049382716049382706,29.58024691358024,0)" xlink:href="#aL"/><use transform="matrix(0.049382716049382706,0,0,0.049382716049382706,39.456790123456784,0)" xlink:href="#bk"/><use transform="matrix(0.049382716049382706,0,0,0.049382716049382706,49.33333333333333,0)" xlink:href="#av"/></g><path fill="#3a414a" d="M115-194c53 0 69 39 70 98 0 66-23 100-70 100C84 3 66-7 56-30L54 0H23l1-261h32v101c10-23 28-34 59-34zm-8 174c40 0 45-34 45-75 0-40-5-75-45-74-42 0-51 32-51 76 0 43 10 73 51 73" id="cd"/><g id="ab"><use transform="matrix(0.049382716049382706,0,0,0.049382716049382706,0,0)" xlink:href="#aL"/><use transform="matrix(0.049382716049382706,0,0,0.049382716049382706,9.87654320987654,0)" xlink:href="#cd"/><use transform="matrix(0.049382716049382706,0,0,0.049382716049382706,19.75308641975308,0)" xlink:href="#aO"/><use transform="matrix(0.049382716049382706,0,0,0.049382716049382706,23.654320987654316,0)" xlink:href="#av"/><use transform="matrix(0.049382716049382706,0,0,0.049382716049382706,33.53086419753086,0)" xlink:href="#bk"/><use transform="matrix(0.049382716049382706,0,0,0.049382716049382706,43.407407407407405,0)" xlink:href="#av"/><use transform="matrix(0.049382716049382706,0,0,0.049382716049382706,53.28395061728395,0)" xlink:href="#aM"/></g><path fill="#3a414a" d="M205 0l-28-72H64L36 0H1l101-248h38L239 0h-34zm-38-99l-47-123c-12 45-31 82-46 123h93" id="ce"/><g id="ac"><use transform="matrix(0.049382716049382706,0,0,0.049382716049382706,0,0)" xlink:href="#ce"/><use transform="matrix(0.049382716049382706,0,0,0.049382716049382706,11.85185185185185,0)" xlink:href="#aK"/><use transform="matrix(0.049382716049382706,0,0,0.049382716049382706,16.79012345679012,0)" xlink:href="#aK"/><use transform="matrix(0.049382716049382706,0,0,0.049382716049382706,21.728395061728392,0)" xlink:href="#aw"/><use transform="matrix(0.049382716049382706,0,0,0.049382716049382706,27.604938271604933,0)" xlink:href="#ay"/><use transform="matrix(0.049382716049382706,0,0,0.049382716049382706,31.506172839506167,0)" xlink:href="#cd"/><use transform="matrix(0.049382716049382706,0,0,0.049382716049382706,41.38271604938271,0)" xlink:href="#aH"/><use transform="matrix(0.049382716049382706,0,0,0.049382716049382706,51.25925925925925,0)" xlink:href="#aK"/><use transform="matrix(0.049382716049382706,0,0,0.049382716049382706,56.19753086419752,0)" xlink:href="#av"/><use transform="matrix(0.049382716049382706,0,0,0.049382716049382706,66.07407407407406,0)" xlink:href="#bD"/><use transform="matrix(0.049382716049382706,0,0,0.049382716049382706,71.01234567901233,0)" xlink:href="#ay"/><use transform="matrix(0.049382716049382706,0,0,0.049382716049382706,74.91358024691355,0)" xlink:href="#aO"/><use transform="matrix(0.049382716049382706,0,0,0.049382716049382706,78.81481481481478,0)" xlink:href="#aK"/><use transform="matrix(0.049382716049382706,0,0,0.049382716049382706,83.75308641975305,0)" xlink:href="#av"/><use transform="matrix(0.049382716049382706,0,0,0.049382716049382706,93.62962962962959,0)" xlink:href="#aw"/></g><g id="ad"><use transform="matrix(0.049382716049382706,0,0,0.049382716049382706,0,0)" xlink:href="#av"/><use transform="matrix(0.049382716049382706,0,0,0.049382716049382706,9.87654320987654,0)" xlink:href="#aw"/><use transform="matrix(0.049382716049382706,0,0,0.049382716049382706,15.75308641975308,0)" xlink:href="#be"/><use transform="matrix(0.049382716049382706,0,0,0.049382716049382706,24.641975308641968,0)" xlink:href="#aK"/><use transform="matrix(0.049382716049382706,0,0,0.049382716049382706,29.58024691358024,0)" xlink:href="#av"/><use transform="matrix(0.049382716049382706,0,0,0.049382716049382706,39.456790123456784,0)" xlink:href="#aO"/><use transform="matrix(0.049382716049382706,0,0,0.049382716049382706,43.35802469135802,0)" xlink:href="#aO"/><use transform="matrix(0.049382716049382706,0,0,0.049382716049382706,47.25925925925925,0)" xlink:href="#av"/><use transform="matrix(0.049382716049382706,0,0,0.049382716049382706,57.13580246913579,0)" xlink:href="#aM"/></g><g id="ae"><use transform="matrix(0.04938271604938272,0,0,0.04938271604938272,0,0)" xlink:href="#ce"/><use transform="matrix(0.04938271604938272,0,0,0.04938271604938272,11.851851851851853,0)" xlink:href="#aK"/><use transform="matrix(0.04938271604938272,0,0,0.04938271604938272,16.790123456790127,0)" xlink:href="#aK"/><use transform="matrix(0.04938271604938272,0,0,0.04938271604938272,21.7283950617284,0)" xlink:href="#aw"/><use transform="matrix(0.04938271604938272,0,0,0.04938271604938272,27.604938271604947,0)" xlink:href="#ay"/><use transform="matrix(0.04938271604938272,0,0,0.04938271604938272,31.506172839506174,0)" xlink:href="#cd"/><use transform="matrix(0.04938271604938272,0,0,0.04938271604938272,41.38271604938272,0)" xlink:href="#aH"/><use transform="matrix(0.04938271604938272,0,0,0.04938271604938272,51.25925925925927,0)" xlink:href="#aK"/><use transform="matrix(0.04938271604938272,0,0,0.04938271604938272,56.19753086419754,0)" xlink:href="#av"/></g><g id="af"><use transform="matrix(0.04938271604938272,0,0,0.04938271604938272,0,0)" xlink:href="#bg"/><use transform="matrix(0.04938271604938272,0,0,0.04938271604938272,10.814814814814815,0)" xlink:href="#ay"/><use transform="matrix(0.04938271604938272,0,0,0.04938271604938272,14.71604938271605,0)" xlink:href="#aO"/><use transform="matrix(0.04938271604938272,0,0,0.04938271604938272,18.617283950617285,0)" xlink:href="#aK"/><use transform="matrix(0.04938271604938272,0,0,0.04938271604938272,23.555555555555557,0)" xlink:href="#av"/><use transform="matrix(0.04938271604938272,0,0,0.04938271604938272,33.4320987654321,0)" xlink:href="#aw"/></g><g id="ag"><use transform="matrix(0.049382716049382706,0,0,0.049382716049382706,0,0)" xlink:href="#aF"/><use transform="matrix(0.049382716049382706,0,0,0.049382716049382706,14.765432098765428,0)" xlink:href="#av"/><use transform="matrix(0.049382716049382706,0,0,0.049382716049382706,24.641975308641968,0)" xlink:href="#aK"/><use transform="matrix(0.049382716049382706,0,0,0.049382716049382706,29.58024691358024,0)" xlink:href="#aL"/><use transform="matrix(0.049382716049382706,0,0,0.049382716049382706,39.456790123456784,0)" xlink:href="#aC"/><use transform="matrix(0.049382716049382706,0,0,0.049382716049382706,49.33333333333333,0)" xlink:href="#aL"/><use transform="matrix(0.049382716049382706,0,0,0.049382716049382706,59.20987654320987,0)" xlink:href="#aK"/><use transform="matrix(0.049382716049382706,0,0,0.049382716049382706,64.14814814814814,0)" xlink:href="#av"/><use transform="matrix(0.049382716049382706,0,0,0.049382716049382706,74.02469135802468,0)" xlink:href="#aM"/></g><path fill="#3a414a" d="M195 0l-74-108L45 0H8l94-129-87-119h37l69 98 67-98h37l-84 118L233 0h-38" id="cf"/><path fill="#3a414a" d="M30 0v-248h33v221h125V0H30" id="cg"/><g id="ah"><use transform="matrix(0.049382716049382706,0,0,0.049382716049382706,0,0)" xlink:href="#cf"/><use transform="matrix(0.049382716049382706,0,0,0.049382716049382706,11.85185185185185,0)" xlink:href="#aF"/><use transform="matrix(0.049382716049382706,0,0,0.049382716049382706,26.617283950617278,0)" xlink:href="#cg"/></g><g id="ai"><use transform="matrix(0.049382716049382706,0,0,0.049382716049382706,0,0)" xlink:href="#aL"/><use transform="matrix(0.049382716049382706,0,0,0.049382716049382706,9.87654320987654,0)" xlink:href="#cd"/><use transform="matrix(0.049382716049382706,0,0,0.049382716049382706,19.75308641975308,0)" xlink:href="#aw"/><use transform="matrix(0.049382716049382706,0,0,0.049382716049382706,25.629629629629626,0)" xlink:href="#aH"/><use transform="matrix(0.049382716049382706,0,0,0.049382716049382706,35.50617283950616,0)" xlink:href="#bD"/><use transform="matrix(0.049382716049382706,0,0,0.049382716049382706,40.444444444444436,0)" xlink:href="#av"/><use transform="matrix(0.049382716049382706,0,0,0.049382716049382706,50.32098765432097,0)" xlink:href="#aM"/></g><g id="aj"><use transform="matrix(0.04938271604938272,0,0,0.04938271604938272,0,0)" xlink:href="#bf"/><use transform="matrix(0.04938271604938272,0,0,0.04938271604938272,12.790123456790125,0)" xlink:href="#bg"/><use transform="matrix(0.04938271604938272,0,0,0.04938271604938272,23.60493827160494,0)" xlink:href="#bh"/></g><g id="ak"><use transform="matrix(0.04938271604938272,0,0,0.04938271604938272,0,0)" xlink:href="#aD"/><use transform="matrix(0.04938271604938272,0,0,0.04938271604938272,4.938271604938272,0)" xlink:href="#aE"/><use transform="matrix(0.04938271604938272,0,0,0.04938271604938272,17.7283950617284,0)" xlink:href="#bl"/></g><g id="al"><use transform="matrix(0.04938271604938272,0,0,0.04938271604938272,0,0)" xlink:href="#bh"/><use transform="matrix(0.04938271604938272,0,0,0.04938271604938272,12.790123456790125,0)" xlink:href="#aB"/><use transform="matrix(0.04938271604938272,0,0,0.04938271604938272,22.66666666666667,0)" xlink:href="#aM"/><use transform="matrix(0.04938271604938272,0,0,0.04938271604938272,32.543209876543216,0)" xlink:href="#bD"/><use transform="matrix(0.04938271604938272,0,0,0.04938271604938272,37.48148148148149,0)" xlink:href="#ay"/><use transform="matrix(0.04938271604938272,0,0,0.04938271604938272,41.38271604938272,0)" xlink:href="#bk"/></g><g id="am"><use transform="matrix(0.049382716049382706,0,0,0.049382716049382706,0,0)" xlink:href="#bg"/><use transform="matrix(0.049382716049382706,0,0,0.049382716049382706,10.814814814814813,0)" xlink:href="#ay"/><use transform="matrix(0.049382716049382706,0,0,0.049382716049382706,14.716049382716047,0)" xlink:href="#aO"/><use transform="matrix(0.049382716049382706,0,0,0.049382716049382706,18.61728395061728,0)" xlink:href="#aK"/><use transform="matrix(0.049382716049382706,0,0,0.049382716049382706,23.55555555555555,0)" xlink:href="#av"/><use transform="matrix(0.049382716049382706,0,0,0.049382716049382706,33.43209876543209,0)" xlink:href="#aw"/></g><g id="an"><use transform="matrix(0.049382716049382706,0,0,0.049382716049382706,0,0)" xlink:href="#aF"/><use transform="matrix(0.049382716049382706,0,0,0.049382716049382706,14.765432098765428,0)" xlink:href="#av"/><use transform="matrix(0.049382716049382706,0,0,0.049382716049382706,24.641975308641968,0)" xlink:href="#aK"/><use transform="matrix(0.049382716049382706,0,0,0.049382716049382706,29.58024691358024,0)" xlink:href="#aL"/><use transform="matrix(0.049382716049382706,0,0,0.049382716049382706,39.456790123456784,0)" xlink:href="#aC"/><use transform="matrix(0.049382716049382706,0,0,0.049382716049382706,49.33333333333333,0)" xlink:href="#aL"/><use transform="matrix(0.049382716049382706,0,0,0.049382716049382706,59.20987654320987,0)" xlink:href="#aK"/><use transform="matrix(0.049382716049382706,0,0,0.049382716049382706,64.14814814814814,0)" xlink:href="#av"/><use transform="matrix(0.049382716049382706,0,0,0.049382716049382706,74.02469135802468,0)" xlink:href="#aM"/></g><g id="ao"><use transform="matrix(0.049382716049382706,0,0,0.049382716049382706,0,0)" xlink:href="#ay"/><use transform="matrix(0.049382716049382706,0,0,0.049382716049382706,3.9012345679012337,0)" xlink:href="#aM"/></g><g id="ap"><use transform="matrix(0.049382716049382706,0,0,0.049382716049382706,0,0)" xlink:href="#bi"/><use transform="matrix(0.049382716049382706,0,0,0.049382716049382706,8.888888888888888,0)" xlink:href="#aH"/><use transform="matrix(0.049382716049382706,0,0,0.049382716049382706,18.76543209876543,0)" xlink:href="#bk"/><use transform="matrix(0.049382716049382706,0,0,0.049382716049382706,28.64197530864197,0)" xlink:href="#av"/><use transform="matrix(0.049382716049382706,0,0,0.049382716049382706,38.51851851851851,0)" xlink:href="#aJ"/><use transform="matrix(0.049382716049382706,0,0,0.049382716049382706,48.39506172839505,0)" xlink:href="#aI"/><use transform="matrix(0.049382716049382706,0,0,0.049382716049382706,58.271604938271594,0)" xlink:href="#aw"/><use transform="matrix(0.049382716049382706,0,0,0.049382716049382706,64.14814814814814,0)" xlink:href="#ay"/><use transform="matrix(0.049382716049382706,0,0,0.049382716049382706,68.04938271604937,0)" xlink:href="#bk"/><use transform="matrix(0.049382716049382706,0,0,0.049382716049382706,77.92592592592591,0)" xlink:href="#av"/><use transform="matrix(0.049382716049382706,0,0,0.049382716049382706,87.80246913580245,0)" xlink:href="#aM"/></g><g id="aq"><use transform="matrix(0.049382716049382706,0,0,0.049382716049382706,0,0)" xlink:href="#aG"/><use transform="matrix(0.049382716049382706,0,0,0.049382716049382706,13.827160493827158,0)" xlink:href="#ay"/><use transform="matrix(0.049382716049382706,0,0,0.049382716049382706,17.728395061728392,0)" xlink:href="#aK"/></g><g id="ar"><use transform="matrix(0.049382716049382706,0,0,0.049382716049382706,0,0)" xlink:href="#bf"/><use transform="matrix(0.049382716049382706,0,0,0.049382716049382706,12.790123456790122,0)" xlink:href="#av"/><use transform="matrix(0.049382716049382706,0,0,0.049382716049382706,22.666666666666664,0)" xlink:href="#aA"/><use transform="matrix(0.049382716049382706,0,0,0.049382716049382706,32.5432098765432,0)" xlink:href="#aB"/><use transform="matrix(0.049382716049382706,0,0,0.049382716049382706,42.419753086419746,0)" xlink:href="#be"/><use transform="matrix(0.049382716049382706,0,0,0.049382716049382706,51.30864197530863,0)" xlink:href="#ay"/><use transform="matrix(0.049382716049382706,0,0,0.049382716049382706,55.209876543209866,0)" xlink:href="#aK"/><use transform="matrix(0.049382716049382706,0,0,0.049382716049382706,60.14814814814814,0)" xlink:href="#aB"/><use transform="matrix(0.049382716049382706,0,0,0.049382716049382706,70.02469135802468,0)" xlink:href="#aw"/><use transform="matrix(0.049382716049382706,0,0,0.049382716049382706,75.90123456790123,0)" xlink:href="#ay"/><use transform="matrix(0.049382716049382706,0,0,0.049382716049382706,79.80246913580245,0)" xlink:href="#av"/><use transform="matrix(0.049382716049382706,0,0,0.049382716049382706,89.679012345679,0)" xlink:href="#be"/></g><g id="as"><use transform="matrix(0.049382716049382706,0,0,0.049382716049382706,0,0)" xlink:href="#aL"/><use transform="matrix(0.049382716049382706,0,0,0.049382716049382706,9.87654320987654,0)" xlink:href="#cd"/><use transform="matrix(0.049382716049382706,0,0,0.049382716049382706,19.75308641975308,0)" xlink:href="#aO"/><use transform="matrix(0.049382716049382706,0,0,0.049382716049382706,23.654320987654316,0)" xlink:href="#av"/><use transform="matrix(0.049382716049382706,0,0,0.049382716049382706,33.53086419753086,0)" xlink:href="#bk"/><use transform="matrix(0.049382716049382706,0,0,0.049382716049382706,43.407407407407405,0)" xlink:href="#av"/><use transform="matrix(0.049382716049382706,0,0,0.049382716049382706,53.28395061728395,0)" xlink:href="#aM"/></g><g id="at"><use transform="matrix(0.049382716049382706,0,0,0.049382716049382706,0,0)" xlink:href="#aG"/><use transform="matrix(0.049382716049382706,0,0,0.049382716049382706,13.827160493827158,0)" xlink:href="#ay"/><use transform="matrix(0.049382716049382706,0,0,0.049382716049382706,17.728395061728392,0)" xlink:href="#aK"/></g></defs></g></svg>